<?xml version="1.0" encoding="UTF-8" standalone="no"?>
<!-- Created with Inkscape (http://www.inkscape.org/) -->

<svg
   width="210mm"
   height="297mm"
   viewBox="0 0 210 297"
   version="1.1"
   id="svg5"
   inkscape:version="1.1 (c68e22c387, 2021-05-23)"
   sodipodi:docname="薄透镜成像.svg"
   xmlns:inkscape="http://www.inkscape.org/namespaces/inkscape"
   xmlns:sodipodi="http://sodipodi.sourceforge.net/DTD/sodipodi-0.dtd"
   xmlns:xlink="http://www.w3.org/1999/xlink"
   xmlns="http://www.w3.org/2000/svg"
   xmlns:svg="http://www.w3.org/2000/svg">
  <sodipodi:namedview
     id="namedview7"
     pagecolor="#ffffff"
     bordercolor="#666666"
     borderopacity="1.0"
     inkscape:pageshadow="2"
     inkscape:pageopacity="0.0"
     inkscape:pagecheckerboard="0"
     inkscape:document-units="mm"
     showgrid="true"
     inkscape:zoom="1.6630104"
     inkscape:cx="275.70483"
     inkscape:cy="514.72919"
     inkscape:window-width="1920"
     inkscape:window-height="1030"
     inkscape:window-x="0"
     inkscape:window-y="24"
     inkscape:window-maximized="1"
     inkscape:current-layer="layer1">
    <inkscape:grid
       type="xygrid"
       id="grid824" />
  </sodipodi:namedview>
  <defs
     id="defs2">
    <marker
       style="overflow:visible;"
       id="marker17501"
       refX="0.0"
       refY="0.0"
       orient="auto"
       inkscape:stockid="Arrow1Lend"
       inkscape:isstock="true">
      <path
         transform="scale(0.8) rotate(180) translate(12.5,0)"
         style="fill-rule:evenodd;fill:context-stroke;stroke:context-stroke;stroke-width:1.0pt;"
         d="M 0.0,0.0 L 5.0,-5.0 L -12.5,0.0 L 5.0,5.0 L 0.0,0.0 z "
         id="path17499" />
    </marker>
    <marker
       style="overflow:visible;"
       id="marker16756"
       refX="0.0"
       refY="0.0"
       orient="auto"
       inkscape:stockid="Arrow1Lend"
       inkscape:isstock="true">
      <path
         transform="scale(0.8) rotate(180) translate(12.5,0)"
         style="fill-rule:evenodd;fill:context-stroke;stroke:context-stroke;stroke-width:1.0pt;"
         d="M 0.0,0.0 L 5.0,-5.0 L -12.5,0.0 L 5.0,5.0 L 0.0,0.0 z "
         id="path16754" />
    </marker>
    <marker
       style="overflow:visible;"
       id="marker15296"
       refX="0.0"
       refY="0.0"
       orient="auto"
       inkscape:stockid="Arrow1Lend"
       inkscape:isstock="true">
      <path
         transform="scale(0.8) rotate(180) translate(12.5,0)"
         style="fill-rule:evenodd;fill:context-stroke;stroke:context-stroke;stroke-width:1.0pt;"
         d="M 0.0,0.0 L 5.0,-5.0 L -12.5,0.0 L 5.0,5.0 L 0.0,0.0 z "
         id="path15294" />
    </marker>
    <marker
       style="overflow:visible;"
       id="Arrow1Lend"
       refX="0.0"
       refY="0.0"
       orient="auto"
       inkscape:stockid="Arrow1Lend"
       inkscape:isstock="true">
      <path
         transform="scale(0.8) rotate(180) translate(12.5,0)"
         style="fill-rule:evenodd;fill:context-stroke;stroke:context-stroke;stroke-width:1.0pt;"
         d="M 0.0,0.0 L 5.0,-5.0 L -12.5,0.0 L 5.0,5.0 L 0.0,0.0 z "
         id="path2630" />
    </marker>
    <marker
       style="overflow:visible"
       id="Arrow1Lstart"
       refX="0.0"
       refY="0.0"
       orient="auto"
       inkscape:stockid="Arrow1Lstart"
       inkscape:isstock="true">
      <path
         transform="scale(0.8) translate(12.5,0)"
         style="fill-rule:evenodd;fill:context-stroke;stroke:context-stroke;stroke-width:1.0pt"
         d="M 0.0,0.0 L 5.0,-5.0 L -12.5,0.0 L 5.0,5.0 L 0.0,0.0 z "
         id="path2627" />
    </marker>
    <marker
       style="overflow:visible"
       id="Arrow1Sstart"
       refX="0.0"
       refY="0.0"
       orient="auto"
       inkscape:stockid="Arrow1Sstart"
       inkscape:isstock="true">
      <path
         transform="scale(0.2) translate(6,0)"
         style="fill-rule:evenodd;fill:context-stroke;stroke:context-stroke;stroke-width:1.0pt"
         d="M 0.0,0.0 L 5.0,-5.0 L -12.5,0.0 L 5.0,5.0 L 0.0,0.0 z "
         id="path2639" />
    </marker>
    <marker
       style="overflow:visible;"
       id="marker3378"
       refX="0.0"
       refY="0.0"
       orient="auto"
       inkscape:stockid="Arrow1Send"
       inkscape:isstock="true">
      <path
         transform="scale(0.2) rotate(180) translate(6,0)"
         style="fill-rule:evenodd;fill:context-stroke;stroke:context-stroke;stroke-width:1.0pt;"
         d="M 0.0,0.0 L 5.0,-5.0 L -12.5,0.0 L 5.0,5.0 L 0.0,0.0 z "
         id="path3376" />
    </marker>
    <marker
       style="overflow:visible;"
       id="marker3199"
       refX="0.0"
       refY="0.0"
       orient="auto"
       inkscape:stockid="Arrow1Send"
       inkscape:isstock="true">
      <path
         transform="scale(0.2) rotate(180) translate(6,0)"
         style="fill-rule:evenodd;fill:context-stroke;stroke:context-stroke;stroke-width:1.0pt;"
         d="M 0.0,0.0 L 5.0,-5.0 L -12.5,0.0 L 5.0,5.0 L 0.0,0.0 z "
         id="path3197" />
    </marker>
    <marker
       style="overflow:visible;"
       id="Arrow1Send"
       refX="0.0"
       refY="0.0"
       orient="auto"
       inkscape:stockid="Arrow1Send"
       inkscape:isstock="true">
      <path
         transform="scale(0.2) rotate(180) translate(6,0)"
         style="fill-rule:evenodd;fill:context-stroke;stroke:context-stroke;stroke-width:1.0pt;"
         d="M 0.0,0.0 L 5.0,-5.0 L -12.5,0.0 L 5.0,5.0 L 0.0,0.0 z "
         id="path2642" />
    </marker>
    <marker
       style="overflow:visible;"
       id="marker2897"
       refX="0.0"
       refY="0.0"
       orient="auto"
       inkscape:stockid="Arrow1Mend"
       inkscape:isstock="true">
      <path
         transform="scale(0.4) rotate(180) translate(10,0)"
         style="fill-rule:evenodd;fill:context-stroke;stroke:context-stroke;stroke-width:1.0pt;"
         d="M 0.0,0.0 L 5.0,-5.0 L -12.5,0.0 L 5.0,5.0 L 0.0,0.0 z "
         id="path2895" />
    </marker>
    <marker
       style="overflow:visible;"
       id="Arrow1Mend"
       refX="0.0"
       refY="0.0"
       orient="auto"
       inkscape:stockid="Arrow1Mend"
       inkscape:isstock="true">
      <path
         transform="scale(0.4) rotate(180) translate(10,0)"
         style="fill-rule:evenodd;fill:context-stroke;stroke:context-stroke;stroke-width:1.0pt;"
         d="M 0.0,0.0 L 5.0,-5.0 L -12.5,0.0 L 5.0,5.0 L 0.0,0.0 z "
         id="path2636" />
    </marker>
    <g
       id="g4764">
      <symbol
         overflow="visible"
         id="symbol5382">
        <path
           style="stroke:none;"
           d=""
           id="path1852" />
      </symbol>
      <symbol
         overflow="visible"
         id="symbol3518">
        <path
           style="stroke:none;"
           d="M 7.578125 -6.921875 C 7.578125 -6.953125 7.5625 -7.03125 7.46875 -7.03125 C 7.4375 -7.03125 7.421875 -7.015625 7.3125 -6.90625 L 6.625 -6.140625 C 6.53125 -6.28125 6.078125 -7.03125 4.96875 -7.03125 C 2.734375 -7.03125 0.5 -4.828125 0.5 -2.515625 C 0.5 -0.875 1.671875 0.21875 3.203125 0.21875 C 4.0625 0.21875 4.828125 -0.171875 5.359375 -0.640625 C 6.28125 -1.453125 6.453125 -2.359375 6.453125 -2.390625 C 6.453125 -2.5 6.34375 -2.5 6.328125 -2.5 C 6.265625 -2.5 6.21875 -2.46875 6.203125 -2.390625 C 6.109375 -2.109375 5.875 -1.390625 5.1875 -0.8125 C 4.5 -0.265625 3.875 -0.09375 3.359375 -0.09375 C 2.46875 -0.09375 1.40625 -0.609375 1.40625 -2.15625 C 1.40625 -2.734375 1.609375 -4.34375 2.609375 -5.515625 C 3.21875 -6.21875 4.15625 -6.71875 5.046875 -6.71875 C 6.0625 -6.71875 6.65625 -5.953125 6.65625 -4.796875 C 6.65625 -4.390625 6.625 -4.390625 6.625 -4.28125 C 6.625 -4.1875 6.734375 -4.1875 6.765625 -4.1875 C 6.890625 -4.1875 6.890625 -4.203125 6.953125 -4.390625 Z M 7.578125 -6.921875 "
           id="path2096" />
      </symbol>
      <symbol
         overflow="visible"
         id="symbol8192">
        <path
           style="stroke:none;"
           d=""
           id="path387" />
      </symbol>
      <symbol
         overflow="visible"
         id="symbol958">
        <path
           style="stroke:none;"
           d="M 3.515625 -1.265625 L 3.28125 -1.265625 C 3.265625 -1.109375 3.1875 -0.703125 3.09375 -0.640625 C 3.046875 -0.59375 2.515625 -0.59375 2.40625 -0.59375 L 1.125 -0.59375 C 1.859375 -1.234375 2.109375 -1.4375 2.515625 -1.765625 C 3.03125 -2.171875 3.515625 -2.609375 3.515625 -3.265625 C 3.515625 -4.109375 2.78125 -4.625 1.890625 -4.625 C 1.03125 -4.625 0.4375 -4.015625 0.4375 -3.375 C 0.4375 -3.03125 0.734375 -2.984375 0.8125 -2.984375 C 0.96875 -2.984375 1.171875 -3.109375 1.171875 -3.359375 C 1.171875 -3.484375 1.125 -3.734375 0.765625 -3.734375 C 0.984375 -4.21875 1.453125 -4.375 1.78125 -4.375 C 2.484375 -4.375 2.84375 -3.828125 2.84375 -3.265625 C 2.84375 -2.65625 2.40625 -2.1875 2.1875 -1.9375 L 0.515625 -0.265625 C 0.4375 -0.203125 0.4375 -0.1875 0.4375 0 L 3.3125 0 Z M 3.515625 -1.265625 "
           id="path1806" />
      </symbol>
    </g>
    <g
       id="g4537">
      <symbol
         overflow="visible"
         id="symbol1627">
        <path
           style="stroke:none;"
           d=""
           id="path883" />
      </symbol>
      <symbol
         overflow="visible"
         id="symbol1927">
        <path
           style="stroke:none;"
           d="M 7.578125 -6.921875 C 7.578125 -6.953125 7.5625 -7.03125 7.46875 -7.03125 C 7.4375 -7.03125 7.421875 -7.015625 7.3125 -6.90625 L 6.625 -6.140625 C 6.53125 -6.28125 6.078125 -7.03125 4.96875 -7.03125 C 2.734375 -7.03125 0.5 -4.828125 0.5 -2.515625 C 0.5 -0.875 1.671875 0.21875 3.203125 0.21875 C 4.0625 0.21875 4.828125 -0.171875 5.359375 -0.640625 C 6.28125 -1.453125 6.453125 -2.359375 6.453125 -2.390625 C 6.453125 -2.5 6.34375 -2.5 6.328125 -2.5 C 6.265625 -2.5 6.21875 -2.46875 6.203125 -2.390625 C 6.109375 -2.109375 5.875 -1.390625 5.1875 -0.8125 C 4.5 -0.265625 3.875 -0.09375 3.359375 -0.09375 C 2.46875 -0.09375 1.40625 -0.609375 1.40625 -2.15625 C 1.40625 -2.734375 1.609375 -4.34375 2.609375 -5.515625 C 3.21875 -6.21875 4.15625 -6.71875 5.046875 -6.71875 C 6.0625 -6.71875 6.65625 -5.953125 6.65625 -4.796875 C 6.65625 -4.390625 6.625 -4.390625 6.625 -4.28125 C 6.625 -4.1875 6.734375 -4.1875 6.765625 -4.1875 C 6.890625 -4.1875 6.890625 -4.203125 6.953125 -4.390625 Z M 7.578125 -6.921875 "
           id="path7322" />
      </symbol>
      <symbol
         overflow="visible"
         id="symbol7257">
        <path
           style="stroke:none;"
           d=""
           id="path3273" />
      </symbol>
      <symbol
         overflow="visible"
         id="symbol5555">
        <path
           style="stroke:none;"
           d="M 2.328125 -4.4375 C 2.328125 -4.625 2.328125 -4.625 2.125 -4.625 C 1.671875 -4.1875 1.046875 -4.1875 0.765625 -4.1875 L 0.765625 -3.9375 C 0.921875 -3.9375 1.390625 -3.9375 1.765625 -4.125 L 1.765625 -0.578125 C 1.765625 -0.34375 1.765625 -0.25 1.078125 -0.25 L 0.8125 -0.25 L 0.8125 0 C 0.9375 0 1.796875 -0.03125 2.046875 -0.03125 C 2.265625 -0.03125 3.140625 0 3.296875 0 L 3.296875 -0.25 L 3.03125 -0.25 C 2.328125 -0.25 2.328125 -0.34375 2.328125 -0.578125 Z M 2.328125 -4.4375 "
           id="path2224" />
      </symbol>
    </g>
    <g
       id="g892">
      <symbol
         overflow="visible"
         id="symbol3784">
        <path
           style="stroke:none;"
           d=""
           id="path1392" />
      </symbol>
      <symbol
         overflow="visible"
         id="symbol2484">
        <path
           style="stroke:none;"
           d="M 6.5625 -2.296875 C 6.734375 -2.296875 6.921875 -2.296875 6.921875 -2.5 C 6.921875 -2.6875 6.734375 -2.6875 6.5625 -2.6875 L 1.171875 -2.6875 C 1 -2.6875 0.828125 -2.6875 0.828125 -2.5 C 0.828125 -2.296875 1 -2.296875 1.171875 -2.296875 Z M 6.5625 -2.296875 "
           id="path8107" />
      </symbol>
      <symbol
         overflow="visible"
         id="symbol668">
        <path
           style="stroke:none;"
           d=""
           id="path453" />
      </symbol>
      <symbol
         overflow="visible"
         id="symbol1987">
        <path
           style="stroke:none;"
           d="M 0.875 -0.59375 C 0.84375 -0.4375 0.78125 -0.203125 0.78125 -0.15625 C 0.78125 0.015625 0.921875 0.109375 1.078125 0.109375 C 1.203125 0.109375 1.375 0.03125 1.453125 -0.171875 C 1.46875 -0.203125 1.796875 -1.5625 1.84375 -1.75 C 1.921875 -2.078125 2.109375 -2.765625 2.15625 -3.046875 C 2.203125 -3.171875 2.484375 -3.640625 2.71875 -3.859375 C 2.796875 -3.921875 3.09375 -4.1875 3.515625 -4.1875 C 3.78125 -4.1875 3.921875 -4.0625 3.9375 -4.0625 C 3.640625 -4.015625 3.421875 -3.78125 3.421875 -3.515625 C 3.421875 -3.359375 3.53125 -3.171875 3.796875 -3.171875 C 4.0625 -3.171875 4.34375 -3.40625 4.34375 -3.765625 C 4.34375 -4.109375 4.03125 -4.40625 3.515625 -4.40625 C 2.875 -4.40625 2.4375 -3.921875 2.25 -3.640625 C 2.15625 -4.09375 1.796875 -4.40625 1.328125 -4.40625 C 0.875 -4.40625 0.6875 -4.015625 0.59375 -3.84375 C 0.421875 -3.5 0.296875 -2.90625 0.296875 -2.875 C 0.296875 -2.765625 0.390625 -2.765625 0.40625 -2.765625 C 0.515625 -2.765625 0.515625 -2.78125 0.578125 -3 C 0.75 -3.703125 0.953125 -4.1875 1.3125 -4.1875 C 1.46875 -4.1875 1.609375 -4.109375 1.609375 -3.734375 C 1.609375 -3.515625 1.578125 -3.40625 1.453125 -2.890625 Z M 0.875 -0.59375 "
           id="path1074" />
      </symbol>
      <symbol
         overflow="visible"
         id="symbol767">
        <path
           style="stroke:none;"
           d=""
           id="path4020" />
      </symbol>
      <symbol
         overflow="visible"
         id="symbol9248">
        <path
           style="stroke:none;"
           d="M 3.515625 -1.265625 L 3.28125 -1.265625 C 3.265625 -1.109375 3.1875 -0.703125 3.09375 -0.640625 C 3.046875 -0.59375 2.515625 -0.59375 2.40625 -0.59375 L 1.125 -0.59375 C 1.859375 -1.234375 2.109375 -1.4375 2.515625 -1.765625 C 3.03125 -2.171875 3.515625 -2.609375 3.515625 -3.265625 C 3.515625 -4.109375 2.78125 -4.625 1.890625 -4.625 C 1.03125 -4.625 0.4375 -4.015625 0.4375 -3.375 C 0.4375 -3.03125 0.734375 -2.984375 0.8125 -2.984375 C 0.96875 -2.984375 1.171875 -3.109375 1.171875 -3.359375 C 1.171875 -3.484375 1.125 -3.734375 0.765625 -3.734375 C 0.984375 -4.21875 1.453125 -4.375 1.78125 -4.375 C 2.484375 -4.375 2.84375 -3.828125 2.84375 -3.265625 C 2.84375 -2.65625 2.40625 -2.1875 2.1875 -1.9375 L 0.515625 -0.265625 C 0.4375 -0.203125 0.4375 -0.1875 0.4375 0 L 3.3125 0 Z M 3.515625 -1.265625 "
           id="path1225" />
      </symbol>
    </g>
    <g
       id="g5820">
      <symbol
         overflow="visible"
         id="symbol1475">
        <path
           style="stroke:none;"
           d=""
           id="path571" />
      </symbol>
      <symbol
         overflow="visible"
         id="symbol7622">
        <path
           style="stroke:none;"
           d="M 0.875 -0.59375 C 0.84375 -0.4375 0.78125 -0.203125 0.78125 -0.15625 C 0.78125 0.015625 0.921875 0.109375 1.078125 0.109375 C 1.203125 0.109375 1.375 0.03125 1.453125 -0.171875 C 1.46875 -0.203125 1.796875 -1.5625 1.84375 -1.75 C 1.921875 -2.078125 2.109375 -2.765625 2.15625 -3.046875 C 2.203125 -3.171875 2.484375 -3.640625 2.71875 -3.859375 C 2.796875 -3.921875 3.09375 -4.1875 3.515625 -4.1875 C 3.78125 -4.1875 3.921875 -4.0625 3.9375 -4.0625 C 3.640625 -4.015625 3.421875 -3.78125 3.421875 -3.515625 C 3.421875 -3.359375 3.53125 -3.171875 3.796875 -3.171875 C 4.0625 -3.171875 4.34375 -3.40625 4.34375 -3.765625 C 4.34375 -4.109375 4.03125 -4.40625 3.515625 -4.40625 C 2.875 -4.40625 2.4375 -3.921875 2.25 -3.640625 C 2.15625 -4.09375 1.796875 -4.40625 1.328125 -4.40625 C 0.875 -4.40625 0.6875 -4.015625 0.59375 -3.84375 C 0.421875 -3.5 0.296875 -2.90625 0.296875 -2.875 C 0.296875 -2.765625 0.390625 -2.765625 0.40625 -2.765625 C 0.515625 -2.765625 0.515625 -2.78125 0.578125 -3 C 0.75 -3.703125 0.953125 -4.1875 1.3125 -4.1875 C 1.46875 -4.1875 1.609375 -4.109375 1.609375 -3.734375 C 1.609375 -3.515625 1.578125 -3.40625 1.453125 -2.890625 Z M 0.875 -0.59375 "
           id="path5083" />
      </symbol>
      <symbol
         overflow="visible"
         id="symbol1605">
        <path
           style="stroke:none;"
           d=""
           id="path636" />
      </symbol>
      <symbol
         overflow="visible"
         id="symbol8654">
        <path
           style="stroke:none;"
           d="M 2.328125 -4.4375 C 2.328125 -4.625 2.328125 -4.625 2.125 -4.625 C 1.671875 -4.1875 1.046875 -4.1875 0.765625 -4.1875 L 0.765625 -3.9375 C 0.921875 -3.9375 1.390625 -3.9375 1.765625 -4.125 L 1.765625 -0.578125 C 1.765625 -0.34375 1.765625 -0.25 1.078125 -0.25 L 0.8125 -0.25 L 0.8125 0 C 0.9375 0 1.796875 -0.03125 2.046875 -0.03125 C 2.265625 -0.03125 3.140625 0 3.296875 0 L 3.296875 -0.25 L 3.03125 -0.25 C 2.328125 -0.25 2.328125 -0.34375 2.328125 -0.578125 Z M 2.328125 -4.4375 "
           id="path5659" />
      </symbol>
    </g>
    <g
       id="g6492">
      <symbol
         overflow="visible"
         id="symbol4795">
        <path
           style="stroke:none;"
           d=""
           id="path1351" />
      </symbol>
      <symbol
         overflow="visible"
         id="symbol9230">
        <path
           style="stroke:none;"
           d="M 0.875 -0.59375 C 0.84375 -0.4375 0.78125 -0.203125 0.78125 -0.15625 C 0.78125 0.015625 0.921875 0.109375 1.078125 0.109375 C 1.203125 0.109375 1.375 0.03125 1.453125 -0.171875 C 1.453125 -0.1875 1.578125 -0.65625 1.640625 -0.90625 L 1.859375 -1.796875 C 1.90625 -2.03125 1.96875 -2.25 2.03125 -2.46875 C 2.0625 -2.640625 2.140625 -2.9375 2.15625 -2.96875 C 2.296875 -3.28125 2.828125 -4.1875 3.78125 -4.1875 C 4.234375 -4.1875 4.3125 -3.8125 4.3125 -3.484375 C 4.3125 -2.875 3.828125 -1.59375 3.671875 -1.171875 C 3.578125 -0.9375 3.5625 -0.8125 3.5625 -0.703125 C 3.5625 -0.234375 3.921875 0.109375 4.390625 0.109375 C 5.328125 0.109375 5.6875 -1.34375 5.6875 -1.421875 C 5.6875 -1.53125 5.609375 -1.53125 5.578125 -1.53125 C 5.46875 -1.53125 5.46875 -1.5 5.421875 -1.34375 C 5.21875 -0.671875 4.890625 -0.109375 4.40625 -0.109375 C 4.234375 -0.109375 4.171875 -0.203125 4.171875 -0.4375 C 4.171875 -0.6875 4.25 -0.921875 4.34375 -1.140625 C 4.53125 -1.671875 4.953125 -2.765625 4.953125 -3.34375 C 4.953125 -4 4.53125 -4.40625 3.8125 -4.40625 C 2.90625 -4.40625 2.421875 -3.765625 2.25 -3.53125 C 2.203125 -4.09375 1.796875 -4.40625 1.328125 -4.40625 C 0.875 -4.40625 0.6875 -4.015625 0.59375 -3.84375 C 0.421875 -3.5 0.296875 -2.90625 0.296875 -2.875 C 0.296875 -2.765625 0.390625 -2.765625 0.40625 -2.765625 C 0.515625 -2.765625 0.515625 -2.78125 0.578125 -3 C 0.75 -3.703125 0.953125 -4.1875 1.3125 -4.1875 C 1.5 -4.1875 1.609375 -4.0625 1.609375 -3.734375 C 1.609375 -3.515625 1.578125 -3.40625 1.453125 -2.890625 Z M 0.875 -0.59375 "
           id="path2013" />
      </symbol>
    </g>
    <g
       id="g175">
      <symbol
         overflow="visible"
         id="symbol3147">
        <path
           style="stroke:none;"
           d=""
           id="path2547" />
      </symbol>
      <symbol
         overflow="visible"
         id="symbol2723">
        <path
           style="stroke:none;"
           d="M 0.875 -0.59375 C 0.84375 -0.4375 0.78125 -0.203125 0.78125 -0.15625 C 0.78125 0.015625 0.921875 0.109375 1.078125 0.109375 C 1.203125 0.109375 1.375 0.03125 1.453125 -0.171875 C 1.453125 -0.1875 1.578125 -0.65625 1.640625 -0.90625 L 1.859375 -1.796875 C 1.90625 -2.03125 1.96875 -2.25 2.03125 -2.46875 C 2.0625 -2.640625 2.140625 -2.9375 2.15625 -2.96875 C 2.296875 -3.28125 2.828125 -4.1875 3.78125 -4.1875 C 4.234375 -4.1875 4.3125 -3.8125 4.3125 -3.484375 C 4.3125 -2.875 3.828125 -1.59375 3.671875 -1.171875 C 3.578125 -0.9375 3.5625 -0.8125 3.5625 -0.703125 C 3.5625 -0.234375 3.921875 0.109375 4.390625 0.109375 C 5.328125 0.109375 5.6875 -1.34375 5.6875 -1.421875 C 5.6875 -1.53125 5.609375 -1.53125 5.578125 -1.53125 C 5.46875 -1.53125 5.46875 -1.5 5.421875 -1.34375 C 5.21875 -0.671875 4.890625 -0.109375 4.40625 -0.109375 C 4.234375 -0.109375 4.171875 -0.203125 4.171875 -0.4375 C 4.171875 -0.6875 4.25 -0.921875 4.34375 -1.140625 C 4.53125 -1.671875 4.953125 -2.765625 4.953125 -3.34375 C 4.953125 -4 4.53125 -4.40625 3.8125 -4.40625 C 2.90625 -4.40625 2.421875 -3.765625 2.25 -3.53125 C 2.203125 -4.09375 1.796875 -4.40625 1.328125 -4.40625 C 0.875 -4.40625 0.6875 -4.015625 0.59375 -3.84375 C 0.421875 -3.5 0.296875 -2.90625 0.296875 -2.875 C 0.296875 -2.765625 0.390625 -2.765625 0.40625 -2.765625 C 0.515625 -2.765625 0.515625 -2.78125 0.578125 -3 C 0.75 -3.703125 0.953125 -4.1875 1.3125 -4.1875 C 1.5 -4.1875 1.609375 -4.0625 1.609375 -3.734375 C 1.609375 -3.515625 1.578125 -3.40625 1.453125 -2.890625 Z M 0.875 -0.59375 "
           id="path8938" />
      </symbol>
      <symbol
         overflow="visible"
         id="symbol8958">
        <path
           style="stroke:none;"
           d=""
           id="path2529" />
      </symbol>
      <symbol
         overflow="visible"
         id="symbol7834">
        <path
           style="stroke:none;"
           d="M 2.015625 -3.296875 C 2.078125 -3.40625 2.078125 -3.46875 2.078125 -3.515625 C 2.078125 -3.734375 1.890625 -3.890625 1.671875 -3.890625 C 1.40625 -3.890625 1.328125 -3.671875 1.296875 -3.5625 L 0.375 -0.546875 C 0.359375 -0.53125 0.328125 -0.453125 0.328125 -0.4375 C 0.328125 -0.359375 0.546875 -0.28125 0.609375 -0.28125 C 0.65625 -0.28125 0.65625 -0.296875 0.703125 -0.40625 Z M 2.015625 -3.296875 "
           id="path7624" />
      </symbol>
    </g>
    <g
       id="g6265">
      <symbol
         overflow="visible"
         id="symbol9534">
        <path
           style="stroke:none;"
           d=""
           id="path5666" />
      </symbol>
      <symbol
         overflow="visible"
         id="symbol9572">
        <path
           style="stroke:none;"
           d="M 0.875 -0.59375 C 0.84375 -0.4375 0.78125 -0.203125 0.78125 -0.15625 C 0.78125 0.015625 0.921875 0.109375 1.078125 0.109375 C 1.203125 0.109375 1.375 0.03125 1.453125 -0.171875 C 1.453125 -0.1875 1.578125 -0.65625 1.640625 -0.90625 L 1.859375 -1.796875 C 1.90625 -2.03125 1.96875 -2.25 2.03125 -2.46875 C 2.0625 -2.640625 2.140625 -2.9375 2.15625 -2.96875 C 2.296875 -3.28125 2.828125 -4.1875 3.78125 -4.1875 C 4.234375 -4.1875 4.3125 -3.8125 4.3125 -3.484375 C 4.3125 -2.875 3.828125 -1.59375 3.671875 -1.171875 C 3.578125 -0.9375 3.5625 -0.8125 3.5625 -0.703125 C 3.5625 -0.234375 3.921875 0.109375 4.390625 0.109375 C 5.328125 0.109375 5.6875 -1.34375 5.6875 -1.421875 C 5.6875 -1.53125 5.609375 -1.53125 5.578125 -1.53125 C 5.46875 -1.53125 5.46875 -1.5 5.421875 -1.34375 C 5.21875 -0.671875 4.890625 -0.109375 4.40625 -0.109375 C 4.234375 -0.109375 4.171875 -0.203125 4.171875 -0.4375 C 4.171875 -0.6875 4.25 -0.921875 4.34375 -1.140625 C 4.53125 -1.671875 4.953125 -2.765625 4.953125 -3.34375 C 4.953125 -4 4.53125 -4.40625 3.8125 -4.40625 C 2.90625 -4.40625 2.421875 -3.765625 2.25 -3.53125 C 2.203125 -4.09375 1.796875 -4.40625 1.328125 -4.40625 C 0.875 -4.40625 0.6875 -4.015625 0.59375 -3.84375 C 0.421875 -3.5 0.296875 -2.90625 0.296875 -2.875 C 0.296875 -2.765625 0.390625 -2.765625 0.40625 -2.765625 C 0.515625 -2.765625 0.515625 -2.78125 0.578125 -3 C 0.75 -3.703125 0.953125 -4.1875 1.3125 -4.1875 C 1.5 -4.1875 1.609375 -4.0625 1.609375 -3.734375 C 1.609375 -3.515625 1.578125 -3.40625 1.453125 -2.890625 Z M 0.875 -0.59375 "
           id="path1078" />
      </symbol>
      <symbol
         overflow="visible"
         id="symbol1330">
        <path
           style="stroke:none;"
           d=""
           id="path6647" />
      </symbol>
      <symbol
         overflow="visible"
         id="symbol4831">
        <path
           style="stroke:none;"
           d="M 2.875 -4.1875 C 2.9375 -4.4375 2.953125 -4.515625 3.59375 -4.515625 C 3.8125 -4.515625 3.875 -4.515625 3.875 -4.65625 C 3.875 -4.671875 3.875 -4.765625 3.765625 -4.765625 C 3.609375 -4.765625 3.421875 -4.75 3.25 -4.734375 C 3.078125 -4.734375 2.859375 -4.734375 2.6875 -4.734375 C 2.546875 -4.734375 2.359375 -4.734375 2.203125 -4.734375 C 2.0625 -4.734375 1.890625 -4.765625 1.75 -4.765625 C 1.71875 -4.765625 1.609375 -4.765625 1.609375 -4.609375 C 1.609375 -4.515625 1.6875 -4.515625 1.828125 -4.515625 C 1.84375 -4.515625 1.96875 -4.515625 2.09375 -4.5 C 2.25 -4.484375 2.265625 -4.46875 2.265625 -4.390625 C 2.265625 -4.390625 2.265625 -4.34375 2.234375 -4.25 L 1.296875 -0.546875 C 1.234375 -0.3125 1.21875 -0.25 0.6875 -0.25 C 0.578125 -0.25 0.484375 -0.25 0.484375 -0.109375 C 0.484375 0 0.5625 0 0.6875 0 L 4.1875 0 C 4.375 0 4.375 0 4.4375 -0.140625 C 4.5 -0.328125 5.03125 -1.671875 5.03125 -1.734375 C 5.03125 -1.75 5.015625 -1.828125 4.90625 -1.828125 C 4.828125 -1.828125 4.8125 -1.796875 4.765625 -1.6875 C 4.5 -1.03125 4.1875 -0.25 2.921875 -0.25 L 2.125 -0.25 C 1.921875 -0.25 1.90625 -0.265625 1.90625 -0.328125 C 1.90625 -0.328125 1.90625 -0.359375 1.9375 -0.46875 Z M 2.875 -4.1875 "
           id="path2948" />
      </symbol>
    </g>
    <g
       id="g5803">
      <symbol
         overflow="visible"
         id="symbol7060">
        <path
           style="stroke:none;"
           d=""
           id="path6962" />
      </symbol>
      <symbol
         overflow="visible"
         id="symbol3822">
        <path
           style="stroke:none;"
           d="M 0.875 -0.59375 C 0.84375 -0.4375 0.78125 -0.203125 0.78125 -0.15625 C 0.78125 0.015625 0.921875 0.109375 1.078125 0.109375 C 1.203125 0.109375 1.375 0.03125 1.453125 -0.171875 C 1.453125 -0.1875 1.578125 -0.65625 1.640625 -0.90625 L 1.859375 -1.796875 C 1.90625 -2.03125 1.96875 -2.25 2.03125 -2.46875 C 2.0625 -2.640625 2.140625 -2.9375 2.15625 -2.96875 C 2.296875 -3.28125 2.828125 -4.1875 3.78125 -4.1875 C 4.234375 -4.1875 4.3125 -3.8125 4.3125 -3.484375 C 4.3125 -2.875 3.828125 -1.59375 3.671875 -1.171875 C 3.578125 -0.9375 3.5625 -0.8125 3.5625 -0.703125 C 3.5625 -0.234375 3.921875 0.109375 4.390625 0.109375 C 5.328125 0.109375 5.6875 -1.34375 5.6875 -1.421875 C 5.6875 -1.53125 5.609375 -1.53125 5.578125 -1.53125 C 5.46875 -1.53125 5.46875 -1.5 5.421875 -1.34375 C 5.21875 -0.671875 4.890625 -0.109375 4.40625 -0.109375 C 4.234375 -0.109375 4.171875 -0.203125 4.171875 -0.4375 C 4.171875 -0.6875 4.25 -0.921875 4.34375 -1.140625 C 4.53125 -1.671875 4.953125 -2.765625 4.953125 -3.34375 C 4.953125 -4 4.53125 -4.40625 3.8125 -4.40625 C 2.90625 -4.40625 2.421875 -3.765625 2.25 -3.53125 C 2.203125 -4.09375 1.796875 -4.40625 1.328125 -4.40625 C 0.875 -4.40625 0.6875 -4.015625 0.59375 -3.84375 C 0.421875 -3.5 0.296875 -2.90625 0.296875 -2.875 C 0.296875 -2.765625 0.390625 -2.765625 0.40625 -2.765625 C 0.515625 -2.765625 0.515625 -2.78125 0.578125 -3 C 0.75 -3.703125 0.953125 -4.1875 1.3125 -4.1875 C 1.5 -4.1875 1.609375 -4.0625 1.609375 -3.734375 C 1.609375 -3.515625 1.578125 -3.40625 1.453125 -2.890625 Z M 0.875 -0.59375 "
           id="path3730" />
      </symbol>
      <symbol
         overflow="visible"
         id="symbol6434">
        <path
           style="stroke:none;"
           d=""
           id="path8760" />
      </symbol>
      <symbol
         overflow="visible"
         id="symbol7718">
        <path
           style="stroke:none;"
           d="M 2.375 -2.984375 C 2.40625 -3.109375 2.4375 -3.140625 2.5625 -3.15625 C 2.703125 -3.1875 2.796875 -3.1875 2.9375 -3.1875 C 3.078125 -3.1875 3.15625 -3.1875 3.15625 -3.3125 C 3.15625 -3.375 3.109375 -3.40625 3.0625 -3.40625 C 2.921875 -3.40625 2.78125 -3.390625 2.65625 -3.390625 C 2.515625 -3.390625 2.375 -3.390625 2.25 -3.390625 C 2.109375 -3.390625 1.984375 -3.390625 1.859375 -3.390625 C 1.75 -3.390625 1.609375 -3.40625 1.5 -3.40625 C 1.46875 -3.40625 1.375 -3.40625 1.375 -3.265625 C 1.375 -3.1875 1.453125 -3.1875 1.5625 -3.1875 C 1.609375 -3.1875 1.78125 -3.1875 1.890625 -3.15625 C 1.890625 -3.09375 1.890625 -3.078125 1.875 -3.03125 L 1.21875 -0.40625 C 1.171875 -0.265625 1.171875 -0.21875 0.796875 -0.21875 C 0.65625 -0.21875 0.578125 -0.21875 0.578125 -0.078125 C 0.578125 0 0.65625 0 0.75 0 L 3.578125 0 C 3.703125 0 3.703125 0 3.75 -0.109375 C 3.796875 -0.25 4.203125 -1.234375 4.203125 -1.265625 C 4.203125 -1.3125 4.171875 -1.359375 4.09375 -1.359375 C 4.015625 -1.359375 4.015625 -1.34375 3.953125 -1.21875 C 3.6875 -0.578125 3.375 -0.21875 2.546875 -0.21875 L 1.859375 -0.21875 C 1.8125 -0.21875 1.75 -0.21875 1.703125 -0.234375 C 1.703125 -0.28125 1.703125 -0.28125 1.71875 -0.328125 Z M 2.375 -2.984375 "
           id="path7556" />
      </symbol>
    </g>
    <g
       id="g2158">
      <symbol
         overflow="visible"
         id="symbol6360">
        <path
           style="stroke:none;"
           d=""
           id="path1081" />
      </symbol>
      <symbol
         overflow="visible"
         id="symbol3395">
        <path
           style="stroke:none;"
           d="M 3.703125 -3.25 C 3.796875 -3.34375 3.796875 -3.390625 3.796875 -3.40625 C 3.796875 -3.453125 3.765625 -3.515625 3.734375 -3.546875 L 1.6875 -6.5 L 3.984375 -6.5 C 5.671875 -6.5 6.171875 -6.140625 6.375 -4.5625 L 6.625 -4.5625 L 6.34375 -6.8125 L 0.8125 -6.8125 C 0.578125 -6.8125 0.5625 -6.8125 0.5625 -6.578125 L 3.046875 -2.96875 L 0.671875 -0.265625 C 0.5625 -0.15625 0.5625 -0.140625 0.5625 -0.109375 C 0.5625 0 0.671875 0 0.8125 0 L 6.34375 0 L 6.625 -2.359375 L 6.375 -2.359375 C 6.203125 -0.6875 5.515625 -0.421875 3.953125 -0.421875 L 1.203125 -0.421875 Z M 3.703125 -3.25 "
           id="path3" />
      </symbol>
      <symbol
         overflow="visible"
         id="symbol9563">
        <path
           style="stroke:none;"
           d=""
           id="path8897" />
      </symbol>
      <symbol
         overflow="visible"
         id="symbol8903">
        <path
           style="stroke:none;"
           d="M 2.328125 -4.4375 C 2.328125 -4.625 2.328125 -4.625 2.125 -4.625 C 1.671875 -4.1875 1.046875 -4.1875 0.765625 -4.1875 L 0.765625 -3.9375 C 0.921875 -3.9375 1.390625 -3.9375 1.765625 -4.125 L 1.765625 -0.578125 C 1.765625 -0.34375 1.765625 -0.25 1.078125 -0.25 L 0.8125 -0.25 L 0.8125 0 C 0.9375 0 1.796875 -0.03125 2.046875 -0.03125 C 2.265625 -0.03125 3.140625 0 3.296875 0 L 3.296875 -0.25 L 3.03125 -0.25 C 2.328125 -0.25 2.328125 -0.34375 2.328125 -0.578125 Z M 2.328125 -4.4375 "
           id="path1375" />
      </symbol>
    </g>
    <g
       id="g8215">
      <symbol
         overflow="visible"
         id="symbol3146">
        <path
           style="stroke:none;"
           d=""
           id="path4181" />
      </symbol>
      <symbol
         overflow="visible"
         id="symbol1917">
        <path
           style="stroke:none;"
           d="M 3.703125 -3.25 C 3.796875 -3.34375 3.796875 -3.390625 3.796875 -3.40625 C 3.796875 -3.453125 3.765625 -3.515625 3.734375 -3.546875 L 1.6875 -6.5 L 3.984375 -6.5 C 5.671875 -6.5 6.171875 -6.140625 6.375 -4.5625 L 6.625 -4.5625 L 6.34375 -6.8125 L 0.8125 -6.8125 C 0.578125 -6.8125 0.5625 -6.8125 0.5625 -6.578125 L 3.046875 -2.96875 L 0.671875 -0.265625 C 0.5625 -0.15625 0.5625 -0.140625 0.5625 -0.109375 C 0.5625 0 0.671875 0 0.8125 0 L 6.34375 0 L 6.625 -2.359375 L 6.375 -2.359375 C 6.203125 -0.6875 5.515625 -0.421875 3.953125 -0.421875 L 1.203125 -0.421875 Z M 3.703125 -3.25 "
           id="path9451" />
      </symbol>
      <symbol
         overflow="visible"
         id="symbol9268">
        <path
           style="stroke:none;"
           d=""
           id="path8237" />
      </symbol>
      <symbol
         overflow="visible"
         id="symbol2284">
        <path
           style="stroke:none;"
           d="M 3.515625 -1.265625 L 3.28125 -1.265625 C 3.265625 -1.109375 3.1875 -0.703125 3.09375 -0.640625 C 3.046875 -0.59375 2.515625 -0.59375 2.40625 -0.59375 L 1.125 -0.59375 C 1.859375 -1.234375 2.109375 -1.4375 2.515625 -1.765625 C 3.03125 -2.171875 3.515625 -2.609375 3.515625 -3.265625 C 3.515625 -4.109375 2.78125 -4.625 1.890625 -4.625 C 1.03125 -4.625 0.4375 -4.015625 0.4375 -3.375 C 0.4375 -3.03125 0.734375 -2.984375 0.8125 -2.984375 C 0.96875 -2.984375 1.171875 -3.109375 1.171875 -3.359375 C 1.171875 -3.484375 1.125 -3.734375 0.765625 -3.734375 C 0.984375 -4.21875 1.453125 -4.375 1.78125 -4.375 C 2.484375 -4.375 2.84375 -3.828125 2.84375 -3.265625 C 2.84375 -2.65625 2.40625 -2.1875 2.1875 -1.9375 L 0.515625 -0.265625 C 0.4375 -0.203125 0.4375 -0.1875 0.4375 0 L 3.3125 0 Z M 3.515625 -1.265625 "
           id="path3317" />
      </symbol>
    </g>
    <g
       id="g6357">
      <symbol
         overflow="visible"
         id="symbol5067">
        <path
           style="stroke:none;"
           d=""
           id="path7172" />
      </symbol>
      <symbol
         overflow="visible"
         id="symbol1424">
        <path
           style="stroke:none;"
           d="M 4.359375 -0.0625 C 5.90625 -0.640625 7.375 -2.421875 7.375 -4.34375 C 7.375 -5.953125 6.3125 -7.03125 4.828125 -7.03125 C 2.6875 -7.03125 0.484375 -4.765625 0.484375 -2.4375 C 0.484375 -0.78125 1.609375 0.21875 3.046875 0.21875 C 3.296875 0.21875 3.625 0.171875 4.015625 0.0625 C 3.984375 0.6875 3.984375 0.703125 3.984375 0.84375 C 3.984375 1.15625 3.984375 1.9375 4.8125 1.9375 C 5.984375 1.9375 6.46875 0.109375 6.46875 0 C 6.46875 -0.0625 6.40625 -0.09375 6.359375 -0.09375 C 6.28125 -0.09375 6.265625 -0.046875 6.234375 0.015625 C 6 0.71875 5.421875 0.96875 5.078125 0.96875 C 4.609375 0.96875 4.46875 0.703125 4.359375 -0.0625 Z M 2.484375 -0.140625 C 1.703125 -0.453125 1.359375 -1.21875 1.359375 -2.125 C 1.359375 -2.8125 1.625 -4.234375 2.375 -5.296875 C 3.109375 -6.3125 4.046875 -6.78125 4.78125 -6.78125 C 5.765625 -6.78125 6.5 -6 6.5 -4.671875 C 6.5 -3.671875 5.984375 -1.328125 4.3125 -0.40625 C 4.265625 -0.75 4.171875 -1.46875 3.4375 -1.46875 C 2.90625 -1.46875 2.421875 -0.984375 2.421875 -0.453125 C 2.421875 -0.265625 2.484375 -0.15625 2.484375 -0.140625 Z M 3.09375 -0.03125 C 2.953125 -0.03125 2.640625 -0.03125 2.640625 -0.453125 C 2.640625 -0.859375 3.015625 -1.25 3.4375 -1.25 C 3.859375 -1.25 4.046875 -1.015625 4.046875 -0.40625 C 4.046875 -0.265625 4.03125 -0.25 3.9375 -0.203125 C 3.671875 -0.09375 3.375 -0.03125 3.09375 -0.03125 Z M 3.09375 -0.03125 "
           id="path7920" />
      </symbol>
    </g>
    <g
       id="g3538">
      <symbol
         overflow="visible"
         id="symbol2662">
        <path
           style="stroke:none;"
           d=""
           id="path862" />
      </symbol>
      <symbol
         overflow="visible"
         id="symbol9522">
        <path
           style="stroke:none;"
           d="M 4.359375 -0.0625 C 5.90625 -0.640625 7.375 -2.421875 7.375 -4.34375 C 7.375 -5.953125 6.3125 -7.03125 4.828125 -7.03125 C 2.6875 -7.03125 0.484375 -4.765625 0.484375 -2.4375 C 0.484375 -0.78125 1.609375 0.21875 3.046875 0.21875 C 3.296875 0.21875 3.625 0.171875 4.015625 0.0625 C 3.984375 0.6875 3.984375 0.703125 3.984375 0.84375 C 3.984375 1.15625 3.984375 1.9375 4.8125 1.9375 C 5.984375 1.9375 6.46875 0.109375 6.46875 0 C 6.46875 -0.0625 6.40625 -0.09375 6.359375 -0.09375 C 6.28125 -0.09375 6.265625 -0.046875 6.234375 0.015625 C 6 0.71875 5.421875 0.96875 5.078125 0.96875 C 4.609375 0.96875 4.46875 0.703125 4.359375 -0.0625 Z M 2.484375 -0.140625 C 1.703125 -0.453125 1.359375 -1.21875 1.359375 -2.125 C 1.359375 -2.8125 1.625 -4.234375 2.375 -5.296875 C 3.109375 -6.3125 4.046875 -6.78125 4.78125 -6.78125 C 5.765625 -6.78125 6.5 -6 6.5 -4.671875 C 6.5 -3.671875 5.984375 -1.328125 4.3125 -0.40625 C 4.265625 -0.75 4.171875 -1.46875 3.4375 -1.46875 C 2.90625 -1.46875 2.421875 -0.984375 2.421875 -0.453125 C 2.421875 -0.265625 2.484375 -0.15625 2.484375 -0.140625 Z M 3.09375 -0.03125 C 2.953125 -0.03125 2.640625 -0.03125 2.640625 -0.453125 C 2.640625 -0.859375 3.015625 -1.25 3.4375 -1.25 C 3.859375 -1.25 4.046875 -1.015625 4.046875 -0.40625 C 4.046875 -0.265625 4.03125 -0.25 3.9375 -0.203125 C 3.671875 -0.09375 3.375 -0.03125 3.09375 -0.03125 Z M 3.09375 -0.03125 "
           id="path997" />
      </symbol>
      <symbol
         overflow="visible"
         id="symbol3205">
        <path
           style="stroke:none;"
           d=""
           id="path9603" />
      </symbol>
      <symbol
         overflow="visible"
         id="symbol4108">
        <path
           style="stroke:none;"
           d="M 2.015625 -3.296875 C 2.078125 -3.40625 2.078125 -3.46875 2.078125 -3.515625 C 2.078125 -3.734375 1.890625 -3.890625 1.671875 -3.890625 C 1.40625 -3.890625 1.328125 -3.671875 1.296875 -3.5625 L 0.375 -0.546875 C 0.359375 -0.53125 0.328125 -0.453125 0.328125 -0.4375 C 0.328125 -0.359375 0.546875 -0.28125 0.609375 -0.28125 C 0.65625 -0.28125 0.65625 -0.296875 0.703125 -0.40625 Z M 2.015625 -3.296875 "
           id="path450" />
      </symbol>
      <symbol
         overflow="visible"
         id="symbol5333">
        <path
           style="stroke:none;"
           d=""
           id="path6074" />
      </symbol>
      <symbol
         overflow="visible"
         id="symbol5103">
        <path
           style="stroke:none;"
           d="M 2.328125 -4.4375 C 2.328125 -4.625 2.328125 -4.625 2.125 -4.625 C 1.671875 -4.1875 1.046875 -4.1875 0.765625 -4.1875 L 0.765625 -3.9375 C 0.921875 -3.9375 1.390625 -3.9375 1.765625 -4.125 L 1.765625 -0.578125 C 1.765625 -0.34375 1.765625 -0.25 1.078125 -0.25 L 0.8125 -0.25 L 0.8125 0 C 0.9375 0 1.796875 -0.03125 2.046875 -0.03125 C 2.265625 -0.03125 3.140625 0 3.296875 0 L 3.296875 -0.25 L 3.03125 -0.25 C 2.328125 -0.25 2.328125 -0.34375 2.328125 -0.578125 Z M 2.328125 -4.4375 "
           id="path580" />
      </symbol>
    </g>
    <g
       id="g3942">
      <symbol
         overflow="visible"
         id="symbol5007">
        <path
           style="stroke:none;"
           d=""
           id="path9783" />
      </symbol>
      <symbol
         overflow="visible"
         id="symbol6520">
        <path
           style="stroke:none;"
           d="M 4.359375 -0.0625 C 5.90625 -0.640625 7.375 -2.421875 7.375 -4.34375 C 7.375 -5.953125 6.3125 -7.03125 4.828125 -7.03125 C 2.6875 -7.03125 0.484375 -4.765625 0.484375 -2.4375 C 0.484375 -0.78125 1.609375 0.21875 3.046875 0.21875 C 3.296875 0.21875 3.625 0.171875 4.015625 0.0625 C 3.984375 0.6875 3.984375 0.703125 3.984375 0.84375 C 3.984375 1.15625 3.984375 1.9375 4.8125 1.9375 C 5.984375 1.9375 6.46875 0.109375 6.46875 0 C 6.46875 -0.0625 6.40625 -0.09375 6.359375 -0.09375 C 6.28125 -0.09375 6.265625 -0.046875 6.234375 0.015625 C 6 0.71875 5.421875 0.96875 5.078125 0.96875 C 4.609375 0.96875 4.46875 0.703125 4.359375 -0.0625 Z M 2.484375 -0.140625 C 1.703125 -0.453125 1.359375 -1.21875 1.359375 -2.125 C 1.359375 -2.8125 1.625 -4.234375 2.375 -5.296875 C 3.109375 -6.3125 4.046875 -6.78125 4.78125 -6.78125 C 5.765625 -6.78125 6.5 -6 6.5 -4.671875 C 6.5 -3.671875 5.984375 -1.328125 4.3125 -0.40625 C 4.265625 -0.75 4.171875 -1.46875 3.4375 -1.46875 C 2.90625 -1.46875 2.421875 -0.984375 2.421875 -0.453125 C 2.421875 -0.265625 2.484375 -0.15625 2.484375 -0.140625 Z M 3.09375 -0.03125 C 2.953125 -0.03125 2.640625 -0.03125 2.640625 -0.453125 C 2.640625 -0.859375 3.015625 -1.25 3.4375 -1.25 C 3.859375 -1.25 4.046875 -1.015625 4.046875 -0.40625 C 4.046875 -0.265625 4.03125 -0.25 3.9375 -0.203125 C 3.671875 -0.09375 3.375 -0.03125 3.09375 -0.03125 Z M 3.09375 -0.03125 "
           id="path3978" />
      </symbol>
      <symbol
         overflow="visible"
         id="symbol6621">
        <path
           style="stroke:none;"
           d=""
           id="path1189" />
      </symbol>
      <symbol
         overflow="visible"
         id="symbol3291">
        <path
           style="stroke:none;"
           d="M 2.015625 -3.296875 C 2.078125 -3.40625 2.078125 -3.46875 2.078125 -3.515625 C 2.078125 -3.734375 1.890625 -3.890625 1.671875 -3.890625 C 1.40625 -3.890625 1.328125 -3.671875 1.296875 -3.5625 L 0.375 -0.546875 C 0.359375 -0.53125 0.328125 -0.453125 0.328125 -0.4375 C 0.328125 -0.359375 0.546875 -0.28125 0.609375 -0.28125 C 0.65625 -0.28125 0.65625 -0.296875 0.703125 -0.40625 Z M 2.015625 -3.296875 "
           id="path8472" />
      </symbol>
    </g>
    <g
       id="g4822">
      <symbol
         overflow="visible"
         id="symbol587">
        <path
           style="stroke:none;"
           d=""
           id="path9584" />
      </symbol>
      <symbol
         overflow="visible"
         id="symbol9465">
        <path
           style="stroke:none;"
           d="M 7.375 -4.34375 C 7.375 -5.953125 6.3125 -7.03125 4.828125 -7.03125 C 2.6875 -7.03125 0.484375 -4.765625 0.484375 -2.4375 C 0.484375 -0.78125 1.609375 0.21875 3.046875 0.21875 C 5.15625 0.21875 7.375 -1.96875 7.375 -4.34375 Z M 3.09375 -0.046875 C 2.109375 -0.046875 1.421875 -0.84375 1.421875 -2.15625 C 1.421875 -2.609375 1.5625 -4.0625 2.328125 -5.21875 C 3.015625 -6.265625 3.984375 -6.78125 4.78125 -6.78125 C 5.59375 -6.78125 6.484375 -6.21875 6.484375 -4.734375 C 6.484375 -4.015625 6.21875 -2.46875 5.234375 -1.234375 C 4.75 -0.625 3.9375 -0.046875 3.09375 -0.046875 Z M 3.09375 -0.046875 "
           id="path4710" />
      </symbol>
      <symbol
         overflow="visible"
         id="symbol9829">
        <path
           style="stroke:none;"
           d=""
           id="path7375" />
      </symbol>
      <symbol
         overflow="visible"
         id="symbol7588">
        <path
           style="stroke:none;"
           d="M 2.328125 -4.4375 C 2.328125 -4.625 2.328125 -4.625 2.125 -4.625 C 1.671875 -4.1875 1.046875 -4.1875 0.765625 -4.1875 L 0.765625 -3.9375 C 0.921875 -3.9375 1.390625 -3.9375 1.765625 -4.125 L 1.765625 -0.578125 C 1.765625 -0.34375 1.765625 -0.25 1.078125 -0.25 L 0.8125 -0.25 L 0.8125 0 C 0.9375 0 1.796875 -0.03125 2.046875 -0.03125 C 2.265625 -0.03125 3.140625 0 3.296875 0 L 3.296875 -0.25 L 3.03125 -0.25 C 2.328125 -0.25 2.328125 -0.34375 2.328125 -0.578125 Z M 2.328125 -4.4375 "
           id="path5965" />
      </symbol>
    </g>
    <g
       id="g9955">
      <symbol
         overflow="visible"
         id="symbol3823">
        <path
           style="stroke:none;"
           d=""
           id="path6219" />
      </symbol>
      <symbol
         overflow="visible"
         id="symbol7256">
        <path
           style="stroke:none;"
           d="M 7.375 -4.34375 C 7.375 -5.953125 6.3125 -7.03125 4.828125 -7.03125 C 2.6875 -7.03125 0.484375 -4.765625 0.484375 -2.4375 C 0.484375 -0.78125 1.609375 0.21875 3.046875 0.21875 C 5.15625 0.21875 7.375 -1.96875 7.375 -4.34375 Z M 3.09375 -0.046875 C 2.109375 -0.046875 1.421875 -0.84375 1.421875 -2.15625 C 1.421875 -2.609375 1.5625 -4.0625 2.328125 -5.21875 C 3.015625 -6.265625 3.984375 -6.78125 4.78125 -6.78125 C 5.59375 -6.78125 6.484375 -6.21875 6.484375 -4.734375 C 6.484375 -4.015625 6.21875 -2.46875 5.234375 -1.234375 C 4.75 -0.625 3.9375 -0.046875 3.09375 -0.046875 Z M 3.09375 -0.046875 "
           id="path1693" />
      </symbol>
      <symbol
         overflow="visible"
         id="symbol2656">
        <path
           style="stroke:none;"
           d=""
           id="path6505" />
      </symbol>
      <symbol
         overflow="visible"
         id="symbol2064">
        <path
           style="stroke:none;"
           d="M 3.515625 -1.265625 L 3.28125 -1.265625 C 3.265625 -1.109375 3.1875 -0.703125 3.09375 -0.640625 C 3.046875 -0.59375 2.515625 -0.59375 2.40625 -0.59375 L 1.125 -0.59375 C 1.859375 -1.234375 2.109375 -1.4375 2.515625 -1.765625 C 3.03125 -2.171875 3.515625 -2.609375 3.515625 -3.265625 C 3.515625 -4.109375 2.78125 -4.625 1.890625 -4.625 C 1.03125 -4.625 0.4375 -4.015625 0.4375 -3.375 C 0.4375 -3.03125 0.734375 -2.984375 0.8125 -2.984375 C 0.96875 -2.984375 1.171875 -3.109375 1.171875 -3.359375 C 1.171875 -3.484375 1.125 -3.734375 0.765625 -3.734375 C 0.984375 -4.21875 1.453125 -4.375 1.78125 -4.375 C 2.484375 -4.375 2.84375 -3.828125 2.84375 -3.265625 C 2.84375 -2.65625 2.40625 -2.1875 2.1875 -1.9375 L 0.515625 -0.265625 C 0.4375 -0.203125 0.4375 -0.1875 0.4375 0 L 3.3125 0 Z M 3.515625 -1.265625 "
           id="path4761" />
      </symbol>
    </g>
    <g
       id="g1961">
      <symbol
         overflow="visible"
         id="symbol4495">
        <path
           style="stroke:none;"
           d=""
           id="path5495" />
      </symbol>
      <symbol
         overflow="visible"
         id="symbol7660">
        <path
           style="stroke:none;"
           d="M 7.375 -4.34375 C 7.375 -5.953125 6.3125 -7.03125 4.828125 -7.03125 C 2.6875 -7.03125 0.484375 -4.765625 0.484375 -2.4375 C 0.484375 -0.78125 1.609375 0.21875 3.046875 0.21875 C 5.15625 0.21875 7.375 -1.96875 7.375 -4.34375 Z M 3.09375 -0.046875 C 2.109375 -0.046875 1.421875 -0.84375 1.421875 -2.15625 C 1.421875 -2.609375 1.5625 -4.0625 2.328125 -5.21875 C 3.015625 -6.265625 3.984375 -6.78125 4.78125 -6.78125 C 5.59375 -6.78125 6.484375 -6.21875 6.484375 -4.734375 C 6.484375 -4.015625 6.21875 -2.46875 5.234375 -1.234375 C 4.75 -0.625 3.9375 -0.046875 3.09375 -0.046875 Z M 3.09375 -0.046875 "
           id="path3637" />
      </symbol>
    </g>
    <g
       id="g7587">
      <symbol
         overflow="visible"
         id="symbol230">
        <path
           style="stroke:none;"
           d=""
           id="path388" />
      </symbol>
      <symbol
         overflow="visible"
         id="symbol9915">
        <path
           style="stroke:none;"
           d="M 3.890625 -3.734375 C 3.625 -3.71875 3.421875 -3.5 3.421875 -3.28125 C 3.421875 -3.140625 3.515625 -2.984375 3.734375 -2.984375 C 3.953125 -2.984375 4.1875 -3.15625 4.1875 -3.546875 C 4.1875 -4 3.765625 -4.40625 3 -4.40625 C 1.6875 -4.40625 1.3125 -3.390625 1.3125 -2.953125 C 1.3125 -2.171875 2.046875 -2.03125 2.34375 -1.96875 C 2.859375 -1.859375 3.375 -1.75 3.375 -1.203125 C 3.375 -0.953125 3.15625 -0.109375 1.953125 -0.109375 C 1.8125 -0.109375 1.046875 -0.109375 0.8125 -0.640625 C 1.203125 -0.59375 1.453125 -0.890625 1.453125 -1.171875 C 1.453125 -1.390625 1.28125 -1.515625 1.078125 -1.515625 C 0.8125 -1.515625 0.515625 -1.3125 0.515625 -0.859375 C 0.515625 -0.296875 1.09375 0.109375 1.9375 0.109375 C 3.5625 0.109375 3.953125 -1.09375 3.953125 -1.546875 C 3.953125 -1.90625 3.765625 -2.15625 3.640625 -2.265625 C 3.375 -2.546875 3.078125 -2.609375 2.640625 -2.6875 C 2.28125 -2.765625 1.890625 -2.84375 1.890625 -3.296875 C 1.890625 -3.578125 2.125 -4.1875 3 -4.1875 C 3.25 -4.1875 3.75 -4.109375 3.890625 -3.734375 Z M 3.890625 -3.734375 "
           id="path958" />
      </symbol>
      <symbol
         overflow="visible"
         id="symbol5538">
        <path
           style="stroke:none;"
           d=""
           id="path4170" />
      </symbol>
      <symbol
         overflow="visible"
         id="symbol2455">
        <path
           style="stroke:none;"
           d="M 2.328125 -4.4375 C 2.328125 -4.625 2.328125 -4.625 2.125 -4.625 C 1.671875 -4.1875 1.046875 -4.1875 0.765625 -4.1875 L 0.765625 -3.9375 C 0.921875 -3.9375 1.390625 -3.9375 1.765625 -4.125 L 1.765625 -0.578125 C 1.765625 -0.34375 1.765625 -0.25 1.078125 -0.25 L 0.8125 -0.25 L 0.8125 0 C 0.9375 0 1.796875 -0.03125 2.046875 -0.03125 C 2.265625 -0.03125 3.140625 0 3.296875 0 L 3.296875 -0.25 L 3.03125 -0.25 C 2.328125 -0.25 2.328125 -0.34375 2.328125 -0.578125 Z M 2.328125 -4.4375 "
           id="path1634" />
      </symbol>
    </g>
    <g
       id="g6888">
      <symbol
         overflow="visible"
         id="symbol4571">
        <path
           style="stroke:none;"
           d=""
           id="path6607" />
      </symbol>
      <symbol
         overflow="visible"
         id="symbol8235">
        <path
           style="stroke:none;"
           d="M 5.140625 -6.8125 C 5.140625 -6.8125 5.140625 -6.921875 5.015625 -6.921875 C 4.859375 -6.921875 3.921875 -6.828125 3.75 -6.8125 C 3.671875 -6.796875 3.609375 -6.75 3.609375 -6.625 C 3.609375 -6.5 3.703125 -6.5 3.84375 -6.5 C 4.328125 -6.5 4.34375 -6.4375 4.34375 -6.328125 L 4.3125 -6.125 L 3.71875 -3.765625 C 3.53125 -4.140625 3.25 -4.40625 2.796875 -4.40625 C 1.640625 -4.40625 0.40625 -2.9375 0.40625 -1.484375 C 0.40625 -0.546875 0.953125 0.109375 1.71875 0.109375 C 1.921875 0.109375 2.421875 0.0625 3.015625 -0.640625 C 3.09375 -0.21875 3.453125 0.109375 3.921875 0.109375 C 4.28125 0.109375 4.5 -0.125 4.671875 -0.4375 C 4.828125 -0.796875 4.96875 -1.40625 4.96875 -1.421875 C 4.96875 -1.53125 4.875 -1.53125 4.84375 -1.53125 C 4.75 -1.53125 4.734375 -1.484375 4.703125 -1.34375 C 4.53125 -0.703125 4.359375 -0.109375 3.953125 -0.109375 C 3.671875 -0.109375 3.65625 -0.375 3.65625 -0.5625 C 3.65625 -0.8125 3.671875 -0.875 3.703125 -1.046875 Z M 3.078125 -1.1875 C 3.015625 -1 3.015625 -0.984375 2.875 -0.8125 C 2.4375 -0.265625 2.03125 -0.109375 1.75 -0.109375 C 1.25 -0.109375 1.109375 -0.65625 1.109375 -1.046875 C 1.109375 -1.546875 1.421875 -2.765625 1.65625 -3.234375 C 1.96875 -3.8125 2.40625 -4.1875 2.8125 -4.1875 C 3.453125 -4.1875 3.59375 -3.375 3.59375 -3.3125 C 3.59375 -3.25 3.578125 -3.1875 3.5625 -3.140625 Z M 3.078125 -1.1875 "
           id="path1291" />
      </symbol>
    </g>
    <g
       id="g4715">
      <symbol
         overflow="visible"
         id="symbol9157">
        <path
           style="stroke:none;"
           d=""
           id="path6011" />
      </symbol>
      <symbol
         overflow="visible"
         id="symbol1974">
        <path
           style="stroke:none;"
           d="M 3.890625 -3.734375 C 3.625 -3.71875 3.421875 -3.5 3.421875 -3.28125 C 3.421875 -3.140625 3.515625 -2.984375 3.734375 -2.984375 C 3.953125 -2.984375 4.1875 -3.15625 4.1875 -3.546875 C 4.1875 -4 3.765625 -4.40625 3 -4.40625 C 1.6875 -4.40625 1.3125 -3.390625 1.3125 -2.953125 C 1.3125 -2.171875 2.046875 -2.03125 2.34375 -1.96875 C 2.859375 -1.859375 3.375 -1.75 3.375 -1.203125 C 3.375 -0.953125 3.15625 -0.109375 1.953125 -0.109375 C 1.8125 -0.109375 1.046875 -0.109375 0.8125 -0.640625 C 1.203125 -0.59375 1.453125 -0.890625 1.453125 -1.171875 C 1.453125 -1.390625 1.28125 -1.515625 1.078125 -1.515625 C 0.8125 -1.515625 0.515625 -1.3125 0.515625 -0.859375 C 0.515625 -0.296875 1.09375 0.109375 1.9375 0.109375 C 3.5625 0.109375 3.953125 -1.09375 3.953125 -1.546875 C 3.953125 -1.90625 3.765625 -2.15625 3.640625 -2.265625 C 3.375 -2.546875 3.078125 -2.609375 2.640625 -2.6875 C 2.28125 -2.765625 1.890625 -2.84375 1.890625 -3.296875 C 1.890625 -3.578125 2.125 -4.1875 3 -4.1875 C 3.25 -4.1875 3.75 -4.109375 3.890625 -3.734375 Z M 3.890625 -3.734375 "
           id="path4307" />
      </symbol>
      <symbol
         overflow="visible"
         id="symbol3566">
        <path
           style="stroke:none;"
           d=""
           id="path2638" />
      </symbol>
      <symbol
         overflow="visible"
         id="symbol9773">
        <path
           style="stroke:none;"
           d="M 2.015625 -3.296875 C 2.078125 -3.40625 2.078125 -3.46875 2.078125 -3.515625 C 2.078125 -3.734375 1.890625 -3.890625 1.671875 -3.890625 C 1.40625 -3.890625 1.328125 -3.671875 1.296875 -3.5625 L 0.375 -0.546875 C 0.359375 -0.53125 0.328125 -0.453125 0.328125 -0.4375 C 0.328125 -0.359375 0.546875 -0.28125 0.609375 -0.28125 C 0.65625 -0.28125 0.65625 -0.296875 0.703125 -0.40625 Z M 2.015625 -3.296875 "
           id="path8150" />
      </symbol>
      <symbol
         overflow="visible"
         id="symbol5302">
        <path
           style="stroke:none;"
           d=""
           id="path5456" />
      </symbol>
      <symbol
         overflow="visible"
         id="symbol4478">
        <path
           style="stroke:none;"
           d="M 2.328125 -4.4375 C 2.328125 -4.625 2.328125 -4.625 2.125 -4.625 C 1.671875 -4.1875 1.046875 -4.1875 0.765625 -4.1875 L 0.765625 -3.9375 C 0.921875 -3.9375 1.390625 -3.9375 1.765625 -4.125 L 1.765625 -0.578125 C 1.765625 -0.34375 1.765625 -0.25 1.078125 -0.25 L 0.8125 -0.25 L 0.8125 0 C 0.9375 0 1.796875 -0.03125 2.046875 -0.03125 C 2.265625 -0.03125 3.140625 0 3.296875 0 L 3.296875 -0.25 L 3.03125 -0.25 C 2.328125 -0.25 2.328125 -0.34375 2.328125 -0.578125 Z M 2.328125 -4.4375 "
           id="path5831" />
      </symbol>
    </g>
    <g
       id="g7642">
      <symbol
         overflow="visible"
         id="symbol568">
        <path
           style="stroke:none;"
           d=""
           id="path385" />
      </symbol>
      <symbol
         overflow="visible"
         id="symbol7633">
        <path
           style="stroke:none;"
           d="M 3.890625 -3.734375 C 3.625 -3.71875 3.421875 -3.5 3.421875 -3.28125 C 3.421875 -3.140625 3.515625 -2.984375 3.734375 -2.984375 C 3.953125 -2.984375 4.1875 -3.15625 4.1875 -3.546875 C 4.1875 -4 3.765625 -4.40625 3 -4.40625 C 1.6875 -4.40625 1.3125 -3.390625 1.3125 -2.953125 C 1.3125 -2.171875 2.046875 -2.03125 2.34375 -1.96875 C 2.859375 -1.859375 3.375 -1.75 3.375 -1.203125 C 3.375 -0.953125 3.15625 -0.109375 1.953125 -0.109375 C 1.8125 -0.109375 1.046875 -0.109375 0.8125 -0.640625 C 1.203125 -0.59375 1.453125 -0.890625 1.453125 -1.171875 C 1.453125 -1.390625 1.28125 -1.515625 1.078125 -1.515625 C 0.8125 -1.515625 0.515625 -1.3125 0.515625 -0.859375 C 0.515625 -0.296875 1.09375 0.109375 1.9375 0.109375 C 3.5625 0.109375 3.953125 -1.09375 3.953125 -1.546875 C 3.953125 -1.90625 3.765625 -2.15625 3.640625 -2.265625 C 3.375 -2.546875 3.078125 -2.609375 2.640625 -2.6875 C 2.28125 -2.765625 1.890625 -2.84375 1.890625 -3.296875 C 1.890625 -3.578125 2.125 -4.1875 3 -4.1875 C 3.25 -4.1875 3.75 -4.109375 3.890625 -3.734375 Z M 3.890625 -3.734375 "
           id="path331" />
      </symbol>
      <symbol
         overflow="visible"
         id="symbol7168">
        <path
           style="stroke:none;"
           d=""
           id="path2345" />
      </symbol>
      <symbol
         overflow="visible"
         id="symbol2950">
        <path
           style="stroke:none;"
           d="M 2.015625 -3.296875 C 2.078125 -3.40625 2.078125 -3.46875 2.078125 -3.515625 C 2.078125 -3.734375 1.890625 -3.890625 1.671875 -3.890625 C 1.40625 -3.890625 1.328125 -3.671875 1.296875 -3.5625 L 0.375 -0.546875 C 0.359375 -0.53125 0.328125 -0.453125 0.328125 -0.4375 C 0.328125 -0.359375 0.546875 -0.28125 0.609375 -0.28125 C 0.65625 -0.28125 0.65625 -0.296875 0.703125 -0.40625 Z M 2.015625 -3.296875 "
           id="path4440" />
      </symbol>
      <symbol
         overflow="visible"
         id="symbol8259">
        <path
           style="stroke:none;"
           d=""
           id="path3918" />
      </symbol>
      <symbol
         overflow="visible"
         id="symbol7159">
        <path
           style="stroke:none;"
           d="M 3.515625 -1.265625 L 3.28125 -1.265625 C 3.265625 -1.109375 3.1875 -0.703125 3.09375 -0.640625 C 3.046875 -0.59375 2.515625 -0.59375 2.40625 -0.59375 L 1.125 -0.59375 C 1.859375 -1.234375 2.109375 -1.4375 2.515625 -1.765625 C 3.03125 -2.171875 3.515625 -2.609375 3.515625 -3.265625 C 3.515625 -4.109375 2.78125 -4.625 1.890625 -4.625 C 1.03125 -4.625 0.4375 -4.015625 0.4375 -3.375 C 0.4375 -3.03125 0.734375 -2.984375 0.8125 -2.984375 C 0.96875 -2.984375 1.171875 -3.109375 1.171875 -3.359375 C 1.171875 -3.484375 1.125 -3.734375 0.765625 -3.734375 C 0.984375 -4.21875 1.453125 -4.375 1.78125 -4.375 C 2.484375 -4.375 2.84375 -3.828125 2.84375 -3.265625 C 2.84375 -2.65625 2.40625 -2.1875 2.1875 -1.9375 L 0.515625 -0.265625 C 0.4375 -0.203125 0.4375 -0.1875 0.4375 0 L 3.3125 0 Z M 3.515625 -1.265625 "
           id="path5753" />
      </symbol>
    </g>
  </defs>
  <g
     inkscape:label="图层 1"
     inkscape:groupmode="layer"
     id="layer1">
    <path
       style="fill:#000000;fill-opacity:1;stroke:#000000;stroke-width:0.294286;stroke-linecap:butt;stroke-linejoin:miter;stroke-miterlimit:4;stroke-dasharray:none;stroke-opacity:1"
       d="M 36.512462,130.74047 H 172.77255"
       id="path880"
       inkscape:export-filename="/home/xudonghan/Data/projects/Markdown/光学笔记/几何光学/image/成像/薄透镜成像.png"
       inkscape:export-xdpi="141.08926"
       inkscape:export-ydpi="141.08926" />
    <path
       style="fill:#ffffff;fill-opacity:0;fill-rule:evenodd;stroke:#000000;stroke-width:0.2;stroke-miterlimit:4;stroke-dasharray:none;stroke-opacity:1"
       id="path1008"
       sodipodi:type="arc"
       sodipodi:cx="106.89524"
       sodipodi:cy="130.59775"
       sodipodi:rx="23.358931"
       sodipodi:ry="23.358931"
       sodipodi:start="2.2988219"
       sodipodi:end="3.9886645"
       sodipodi:arc-type="arc"
       d="M 91.352277,148.03495 A 23.358931,23.358931 0 0 1 83.536364,130.54751 23.358931,23.358931 0 0 1 91.42742,113.09386"
       sodipodi:open="true"
       inkscape:export-filename="/home/xudonghan/Data/projects/Markdown/光学笔记/几何光学/image/成像/薄透镜成像.png"
       inkscape:export-xdpi="141.08926"
       inkscape:export-ydpi="141.08926" />
    <path
       style="fill:#ffffff;fill-opacity:0;stroke:#000000;stroke-width:0.0588571;stroke-linecap:butt;stroke-linejoin:miter;stroke-miterlimit:4;stroke-dasharray:none;stroke-opacity:1"
       d="m 87.652402,117.50374 19.465688,13.23673"
       id="path2047"
       inkscape:export-filename="/home/xudonghan/Data/projects/Markdown/光学笔记/几何光学/image/成像/薄透镜成像.png"
       inkscape:export-xdpi="141.08926"
       inkscape:export-ydpi="141.08926" />
    <path
       style="fill:#ffffff;fill-opacity:0;fill-rule:evenodd;stroke:#000000;stroke-width:0.2;stroke-miterlimit:4;stroke-dasharray:none;stroke-opacity:1"
       id="path2177"
       sodipodi:type="arc"
       sodipodi:cx="67.546318"
       sodipodi:cy="130.42805"
       sodipodi:rx="29.587978"
       sodipodi:ry="29.587978"
       sodipodi:start="5.6554977"
       sodipodi:end="0.63393704"
       sodipodi:open="true"
       sodipodi:arc-type="arc"
       d="m 91.494463,113.05178 a 29.587978,29.587978 0 0 1 -0.109059,34.90187"
       inkscape:export-filename="/home/xudonghan/Data/projects/Markdown/光学笔记/几何光学/image/成像/薄透镜成像.png"
       inkscape:export-xdpi="141.08926"
       inkscape:export-ydpi="141.08926" />
    <path
       style="fill:none;stroke:#000000;stroke-width:0.0588571;stroke-linecap:butt;stroke-linejoin:miter;stroke-miterlimit:4;stroke-dasharray:none;stroke-opacity:1"
       d="M 68.186713,130.74047 95.438657,121.3969"
       id="path2311"
       inkscape:export-filename="/home/xudonghan/Data/projects/Markdown/光学笔记/几何光学/image/成像/薄透镜成像.png"
       inkscape:export-xdpi="141.08926"
       inkscape:export-ydpi="141.08926" />
    <path
       style="fill:none;stroke:#ff0000;stroke-width:0.588571;stroke-linecap:butt;stroke-linejoin:miter;stroke-miterlimit:4;stroke-dasharray:none;stroke-opacity:1;marker-end:url(#Arrow1Send)"
       d="M 44.827925,130.74047 85.316514,120.61828"
       id="path2516"
       inkscape:export-filename="/home/xudonghan/Data/projects/Markdown/光学笔记/几何光学/image/成像/薄透镜成像.png"
       inkscape:export-xdpi="141.08926"
       inkscape:export-ydpi="141.08926" />
    <path
       style="fill:#ffffff;fill-opacity:0;stroke:#ff0000;stroke-width:0.588571;stroke-linecap:butt;stroke-linejoin:miter;stroke-miterlimit:4;stroke-dasharray:4.70857, 0.588571;stroke-dashoffset:0;stroke-opacity:1"
       d="m 86.095131,120.61828 36.595589,10.12219"
       id="path2963"
       inkscape:export-filename="/home/xudonghan/Data/projects/Markdown/光学笔记/几何光学/image/成像/薄透镜成像.png"
       inkscape:export-xdpi="141.08926"
       inkscape:export-ydpi="141.08926" />
    <path
       style="fill:none;stroke:#00ff00;stroke-width:0.588571;stroke-linecap:butt;stroke-linejoin:miter;stroke-miterlimit:4;stroke-dasharray:none;stroke-opacity:1;marker-end:url(#marker3199)"
       d="m 95.688107,123.73279 53.725513,7.00768"
       id="path3162"
       sodipodi:nodetypes="cc"
       inkscape:export-filename="/home/xudonghan/Data/projects/Markdown/光学笔记/几何光学/image/成像/薄透镜成像.png"
       inkscape:export-xdpi="141.08926"
       inkscape:export-ydpi="141.08926" />
    <path
       style="fill:none;stroke:#0000ff;stroke-width:0.588571;stroke-linecap:butt;stroke-linejoin:miter;stroke-miterlimit:4;stroke-dasharray:none;stroke-opacity:1;marker-end:url(#marker3378)"
       d="m 86.095131,120.61828 10.122143,3.11451"
       id="path3341"
       inkscape:export-filename="/home/xudonghan/Data/projects/Markdown/光学笔记/几何光学/image/成像/薄透镜成像.png"
       inkscape:export-xdpi="141.08926"
       inkscape:export-ydpi="141.08926" />
    <g
       inkscape:label=""
       transform="matrix(0.25752934,0,0,0.25752934,43.420601,112.06525)"
       id="g3801"
       inkscape:export-filename="/home/xudonghan/Data/projects/Markdown/光学笔记/几何光学/image/成像/薄透镜成像.png"
       inkscape:export-xdpi="141.08926"
       inkscape:export-ydpi="141.08926">
      <g
         id="g865">
        <g
           style="fill:#000000;fill-opacity:1"
           id="g1544">
          <use
             xlink:href="#symbol3518"
             x="91.925003"
             y="81.962997"
             id="use4337"
             width="100%"
             height="100%" />
        </g>
        <g
           style="fill:#000000;fill-opacity:1"
           id="g1086">
          <use
             xlink:href="#symbol958"
             x="99.045998"
             y="83.457001"
             id="use1907"
             width="100%"
             height="100%" />
        </g>
      </g>
    </g>
    <g
       inkscape:label=""
       transform="matrix(0.28471812,0,0,0.28471812,79.672834,109.80208)"
       id="g4046"
       inkscape:export-filename="/home/xudonghan/Data/projects/Markdown/光学笔记/几何光学/image/成像/薄透镜成像.png"
       inkscape:export-xdpi="141.08926"
       inkscape:export-ydpi="141.08926">
      <g
         id="g5747">
        <g
           style="fill:#000000;fill-opacity:1"
           id="g8226">
          <use
             xlink:href="#symbol1927"
             x="91.925003"
             y="81.962997"
             id="use8387"
             width="100%"
             height="100%" />
        </g>
        <g
           style="fill:#000000;fill-opacity:1"
           id="g2058">
          <use
             xlink:href="#symbol5555"
             x="99.045998"
             y="83.457001"
             id="use6795"
             width="100%"
             height="100%" />
        </g>
      </g>
    </g>
    <g
       inkscape:label=""
       transform="matrix(0.35302881,0,0,0.35302881,42.177095,97.962813)"
       id="g4264"
       inkscape:export-filename="/home/xudonghan/Data/projects/Markdown/光学笔记/几何光学/image/成像/薄透镜成像.png"
       inkscape:export-xdpi="141.08926"
       inkscape:export-ydpi="141.08926">
      <g
         id="g275">
        <g
           style="fill:#000000;fill-opacity:1"
           id="g5949">
          <use
             xlink:href="#symbol2484"
             x="91.925003"
             y="81.962997"
             id="use7029"
             width="100%"
             height="100%" />
        </g>
        <g
           style="fill:#000000;fill-opacity:1"
           id="g686">
          <use
             xlink:href="#symbol1987"
             x="99.674004"
             y="81.962997"
             id="use162"
             width="100%"
             height="100%" />
        </g>
        <g
           style="fill:#000000;fill-opacity:1"
           id="g3410">
          <use
             xlink:href="#symbol9248"
             x="104.169"
             y="83.457001"
             id="use1000"
             width="100%"
             height="100%" />
        </g>
      </g>
    </g>
    <g
       inkscape:label=""
       transform="matrix(0.37540436,0,0,0.37540436,65.437339,97.895833)"
       id="g4545"
       inkscape:export-filename="/home/xudonghan/Data/projects/Markdown/光学笔记/几何光学/image/成像/薄透镜成像.png"
       inkscape:export-xdpi="141.08926"
       inkscape:export-ydpi="141.08926">
      <g
         id="g2251">
        <g
           style="fill:#000000;fill-opacity:1"
           id="g9065">
          <use
             xlink:href="#symbol7622"
             x="91.925003"
             y="81.962997"
             id="use9418"
             width="100%"
             height="100%" />
        </g>
        <g
           style="fill:#000000;fill-opacity:1"
           id="g213">
          <use
             xlink:href="#symbol8654"
             x="96.419998"
             y="83.457001"
             id="use3386"
             width="100%"
             height="100%" />
        </g>
      </g>
    </g>
    <g
       inkscape:label=""
       transform="matrix(0.43212933,0,0,0.43212933,26.677688,82.158549)"
       id="g4859"
       inkscape:export-filename="/home/xudonghan/Data/projects/Markdown/光学笔记/几何光学/image/成像/薄透镜成像.png"
       inkscape:export-xdpi="141.08926"
       inkscape:export-ydpi="141.08926">
      <g
         id="g5802">
        <g
           style="fill:#000000;fill-opacity:1"
           id="g1590">
          <use
             xlink:href="#symbol9230"
             x="91.925003"
             y="81.962997"
             id="use2288"
             width="100%"
             height="100%" />
        </g>
      </g>
    </g>
    <g
       inkscape:label=""
       transform="matrix(0.41851785,0,0,0.41851785,71.456083,83.231825)"
       id="g5200"
       inkscape:export-filename="/home/xudonghan/Data/projects/Markdown/光学笔记/几何光学/image/成像/薄透镜成像.png"
       inkscape:export-xdpi="141.08926"
       inkscape:export-ydpi="141.08926">
      <g
         id="g8899">
        <g
           style="fill:#000000;fill-opacity:1"
           id="g2324">
          <use
             xlink:href="#symbol2723"
             x="91.925003"
             y="81.962997"
             id="use8396"
             width="100%"
             height="100%" />
        </g>
        <g
           style="fill:#000000;fill-opacity:1"
           id="g6740">
          <use
             xlink:href="#symbol7834"
             x="97.904999"
             y="77.848999"
             id="use7461"
             width="100%"
             height="100%" />
        </g>
      </g>
    </g>
    <g
       inkscape:label=""
       transform="matrix(0.5035471,0,0,0.5035471,43.155058,75.885779)"
       id="g6082"
       inkscape:export-filename="/home/xudonghan/Data/projects/Markdown/光学笔记/几何光学/image/成像/薄透镜成像.png"
       inkscape:export-xdpi="141.08926"
       inkscape:export-ydpi="141.08926">
      <g
         id="g1870">
        <g
           style="fill:#000000;fill-opacity:1"
           id="g457">
          <use
             xlink:href="#symbol3822"
             x="91.925003"
             y="81.962997"
             id="use4645"
             width="100%"
             height="100%" />
        </g>
        <g
           style="fill:#000000;fill-opacity:1"
           id="g8860">
          <use
             xlink:href="#symbol7718"
             x="97.904999"
             y="84.459"
             id="use8933"
             width="100%"
             height="100%" />
        </g>
      </g>
    </g>
    <g
       inkscape:label=""
       transform="matrix(0.41007236,0,0,0.41007236,45.865802,81.632387)"
       id="g6822"
       inkscape:export-filename="/home/xudonghan/Data/projects/Markdown/光学笔记/几何光学/image/成像/薄透镜成像.png"
       inkscape:export-xdpi="141.08926"
       inkscape:export-ydpi="141.08926">
      <g
         id="g4447">
        <g
           style="fill:#000000;fill-opacity:1"
           id="g7558">
          <use
             xlink:href="#symbol3395"
             x="91.925003"
             y="81.962997"
             id="use7253"
             width="100%"
             height="100%" />
        </g>
        <g
           style="fill:#000000;fill-opacity:1"
           id="g1670">
          <use
             xlink:href="#symbol8903"
             x="99.121002"
             y="83.457001"
             id="use6520"
             width="100%"
             height="100%" />
        </g>
      </g>
    </g>
    <g
       inkscape:label=""
       transform="matrix(0.39404347,0,0,0.39404347,57.390735,82.807554)"
       id="g7331"
       inkscape:export-filename="/home/xudonghan/Data/projects/Markdown/光学笔记/几何光学/image/成像/薄透镜成像.png"
       inkscape:export-xdpi="141.08926"
       inkscape:export-ydpi="141.08926">
      <g
         id="g3566">
        <g
           style="fill:#000000;fill-opacity:1"
           id="g5772">
          <use
             xlink:href="#symbol1917"
             x="91.925003"
             y="81.962997"
             id="use5034"
             width="100%"
             height="100%" />
        </g>
        <g
           style="fill:#000000;fill-opacity:1"
           id="g4451">
          <use
             xlink:href="#symbol2284"
             x="99.121002"
             y="83.457001"
             id="use3445"
             width="100%"
             height="100%" />
        </g>
      </g>
    </g>
    <g
       inkscape:label=""
       transform="matrix(0.29437296,0,0,0.29437296,16.150576,109.27541)"
       id="g8065"
       inkscape:export-filename="/home/xudonghan/Data/projects/Markdown/光学笔记/几何光学/image/成像/薄透镜成像.png"
       inkscape:export-xdpi="141.08926"
       inkscape:export-ydpi="141.08926">
      <g
         id="g5913">
        <g
           style="fill:#000000;fill-opacity:1"
           id="g8663">
          <use
             xlink:href="#symbol1424"
             x="91.925003"
             y="81.962997"
             id="use4006"
             width="100%"
             height="100%" />
        </g>
      </g>
    </g>
    <g
       inkscape:label=""
       transform="matrix(0.23381279,0,0,0.23381279,99.675248,113.89481)"
       id="g8646"
       inkscape:export-filename="/home/xudonghan/Data/projects/Markdown/光学笔记/几何光学/image/成像/薄透镜成像.png"
       inkscape:export-xdpi="141.08926"
       inkscape:export-ydpi="141.08926">
      <g
         id="g1978">
        <g
           style="fill:#000000;fill-opacity:1"
           id="g6460">
          <use
             xlink:href="#symbol9522"
             x="91.925003"
             y="81.962997"
             id="use3510"
             width="100%"
             height="100%" />
        </g>
        <g
           style="fill:#000000;fill-opacity:1"
           id="g3173">
          <use
             xlink:href="#symbol4108"
             x="99.801003"
             y="77.848999"
             id="use5708"
             width="100%"
             height="100%" />
        </g>
        <g
           style="fill:#000000;fill-opacity:1"
           id="g6404">
          <use
             xlink:href="#symbol5103"
             x="99.801003"
             y="84.426003"
             id="use96"
             width="100%"
             height="100%" />
        </g>
      </g>
    </g>
    <g
       inkscape:label=""
       transform="matrix(0.23955625,0,0,0.23955625,126.25887,113.3196)"
       id="g9296"
       inkscape:export-filename="/home/xudonghan/Data/projects/Markdown/光学笔记/几何光学/image/成像/薄透镜成像.png"
       inkscape:export-xdpi="141.08926"
       inkscape:export-ydpi="141.08926">
      <g
         id="g3127">
        <g
           style="fill:#000000;fill-opacity:1"
           id="g9429">
          <use
             xlink:href="#symbol6520"
             x="91.925003"
             y="81.962997"
             id="use6140"
             width="100%"
             height="100%" />
        </g>
        <g
           style="fill:#000000;fill-opacity:1"
           id="g8977">
          <use
             xlink:href="#symbol3291"
             x="99.801003"
             y="77.848999"
             id="use9038"
             width="100%"
             height="100%" />
        </g>
      </g>
    </g>
    <g
       inkscape:label=""
       transform="matrix(0.30596404,0,0,0.31593514,53.193521,107.28231)"
       id="g9985"
       inkscape:export-filename="/home/xudonghan/Data/projects/Markdown/光学笔记/几何光学/image/成像/薄透镜成像.png"
       inkscape:export-xdpi="141.08926"
       inkscape:export-ydpi="141.08926">
      <g
         id="g2897">
        <g
           style="fill:#000000;fill-opacity:1"
           id="g7259">
          <use
             xlink:href="#symbol9465"
             x="91.925003"
             y="81.962997"
             id="use3279"
             width="100%"
             height="100%" />
        </g>
        <g
           style="fill:#000000;fill-opacity:1"
           id="g5046">
          <use
             xlink:href="#symbol7588"
             x="99.525002"
             y="83.457001"
             id="use4154"
             width="100%"
             height="100%" />
        </g>
      </g>
    </g>
    <g
       inkscape:label=""
       transform="matrix(0.30951711,0,0,0.30951711,67.666118,107.84482)"
       id="g10719"
       inkscape:export-filename="/home/xudonghan/Data/projects/Markdown/光学笔记/几何光学/image/成像/薄透镜成像.png"
       inkscape:export-xdpi="141.08926"
       inkscape:export-ydpi="141.08926">
      <g
         id="g405">
        <g
           style="fill:#000000;fill-opacity:1"
           id="g3459">
          <use
             xlink:href="#symbol7256"
             x="91.925003"
             y="81.962997"
             id="use155"
             width="100%"
             height="100%" />
        </g>
        <g
           style="fill:#000000;fill-opacity:1"
           id="g2955">
          <use
             xlink:href="#symbol2064"
             x="99.525002"
             y="83.457001"
             id="use8228"
             width="100%"
             height="100%" />
        </g>
      </g>
    </g>
    <g
       inkscape:label=""
       transform="matrix(0.33333383,0,0,0.33333383,58.924997,106.02265)"
       id="g11754"
       inkscape:export-filename="/home/xudonghan/Data/projects/Markdown/光学笔记/几何光学/image/成像/薄透镜成像.png"
       inkscape:export-xdpi="141.08926"
       inkscape:export-ydpi="141.08926">
      <g
         id="g9866">
        <g
           style="fill:#000000;fill-opacity:1"
           id="g297">
          <use
             xlink:href="#symbol7660"
             x="91.925003"
             y="81.962997"
             id="use3996"
             width="100%"
             height="100%" />
        </g>
      </g>
    </g>
    <path
       style="fill:none;stroke:#000000;stroke-width:0.15;stroke-linecap:butt;stroke-linejoin:miter;stroke-opacity:1;stroke-miterlimit:4;stroke-dasharray:none"
       d="m 45.508334,130.96875 v 7.9375"
       id="path12152"
       inkscape:export-filename="/home/xudonghan/Data/projects/Markdown/光学笔记/几何光学/image/成像/薄透镜成像.png"
       inkscape:export-xdpi="141.08926"
       inkscape:export-ydpi="141.08926" />
    <path
       style="fill:none;stroke:#000000;stroke-width:0.15;stroke-linecap:butt;stroke-linejoin:miter;stroke-opacity:1;stroke-miterlimit:4;stroke-dasharray:none"
       d="m 83.343749,130.96875 10e-7,26.45833"
       id="path12969"
       sodipodi:nodetypes="cc"
       inkscape:export-filename="/home/xudonghan/Data/projects/Markdown/光学笔记/几何光学/image/成像/薄透镜成像.png"
       inkscape:export-xdpi="141.08926"
       inkscape:export-ydpi="141.08926" />
    <path
       style="fill:none;stroke:#000000;stroke-width:0.15;stroke-linecap:butt;stroke-linejoin:miter;stroke-opacity:1;stroke-miterlimit:4;stroke-dasharray:none"
       d="m 97.102082,130.96875 v 23.8125"
       id="path13644"
       inkscape:export-filename="/home/xudonghan/Data/projects/Markdown/光学笔记/几何光学/image/成像/薄透镜成像.png"
       inkscape:export-xdpi="141.08926"
       inkscape:export-ydpi="141.08926" />
    <path
       style="fill:none;stroke:#000000;stroke-width:0.15;stroke-linecap:butt;stroke-linejoin:miter;stroke-miterlimit:4;stroke-dasharray:none;stroke-opacity:1"
       d="m 122.2375,130.96875 v 26.45833"
       id="path13646"
       inkscape:export-filename="/home/xudonghan/Data/projects/Markdown/光学笔记/几何光学/image/成像/薄透镜成像.png"
       inkscape:export-xdpi="141.08926"
       inkscape:export-ydpi="141.08926" />
    <path
       style="fill:none;stroke:#000000;stroke-width:0.187088px;stroke-linecap:butt;stroke-linejoin:miter;stroke-opacity:1"
       d="m 150.01875,130.96875 v 13.22917"
       id="path13904"
       inkscape:export-filename="/home/xudonghan/Data/projects/Markdown/光学笔记/几何光学/image/成像/薄透镜成像.png"
       inkscape:export-xdpi="141.08926"
       inkscape:export-ydpi="141.08926" />
    <path
       style="fill:none;stroke:#000000;stroke-width:0.10177;stroke-linecap:butt;stroke-linejoin:miter;stroke-miterlimit:4;stroke-dasharray:none;stroke-opacity:1;marker-start:url(#Arrow1Lstart);marker-end:url(#Arrow1Lend)"
       d="M 44.979167,136.26041 H 83.343749"
       id="path14889"
       inkscape:export-filename="/home/xudonghan/Data/projects/Markdown/光学笔记/几何光学/image/成像/薄透镜成像.png"
       inkscape:export-xdpi="141.08926"
       inkscape:export-ydpi="141.08926" />
    <path
       style="fill:none;stroke:#000000;stroke-width:0.1;stroke-linecap:butt;stroke-linejoin:miter;stroke-opacity:1;stroke-miterlimit:4;stroke-dasharray:none;marker-start:url(#Arrow1Lstart);marker-end:url(#marker15296)"
       d="M 83.343749,152.13541 H 96.572915"
       id="path15292"
       inkscape:export-filename="/home/xudonghan/Data/projects/Markdown/光学笔记/几何光学/image/成像/薄透镜成像.png"
       inkscape:export-xdpi="141.08926"
       inkscape:export-ydpi="141.08926" />
    <path
       style="fill:none;stroke:#000000;stroke-width:0.1;stroke-linecap:butt;stroke-linejoin:miter;stroke-opacity:1;stroke-miterlimit:4;stroke-dasharray:none;marker-start:url(#Arrow1Lstart);marker-end:url(#marker16756)"
       d="M 83.343749,156.10416 H 121.70833"
       id="path16752"
       inkscape:export-filename="/home/xudonghan/Data/projects/Markdown/光学笔记/几何光学/image/成像/薄透镜成像.png"
       inkscape:export-xdpi="141.08926"
       inkscape:export-ydpi="141.08926" />
    <path
       style="fill:none;stroke:#000000;stroke-width:0.1;stroke-linecap:butt;stroke-linejoin:miter;stroke-opacity:1;stroke-miterlimit:4;stroke-dasharray:none;marker-start:url(#Arrow1Lstart);marker-end:url(#marker17501)"
       d="M 97.102082,138.90625 H 150.01875"
       id="path17417"
       inkscape:export-filename="/home/xudonghan/Data/projects/Markdown/光学笔记/几何光学/image/成像/薄透镜成像.png"
       inkscape:export-xdpi="141.08926"
       inkscape:export-ydpi="141.08926" />
    <g
       inkscape:label=""
       transform="matrix(0.32542258,0,0,0.32542258,31.06693,108.89483)"
       id="g18340"
       inkscape:export-filename="/home/xudonghan/Data/projects/Markdown/光学笔记/几何光学/image/成像/薄透镜成像.png"
       inkscape:export-xdpi="141.08926"
       inkscape:export-ydpi="141.08926">
      <g
         id="g267">
        <g
           style="fill:#000000;fill-opacity:1"
           id="g1167">
          <use
             xlink:href="#symbol9915"
             x="91.925003"
             y="81.962997"
             id="use2185"
             width="100%"
             height="100%" />
        </g>
        <g
           style="fill:#000000;fill-opacity:1"
           id="g8638">
          <use
             xlink:href="#symbol2455"
             x="96.595001"
             y="83.457001"
             id="use8683"
             width="100%"
             height="100%" />
        </g>
      </g>
    </g>
    <g
       inkscape:label=""
       transform="matrix(0.27861582,0,0,0.27861582,63.723021,129.06016)"
       id="g19248"
       inkscape:export-filename="/home/xudonghan/Data/projects/Markdown/光学笔记/几何光学/image/成像/薄透镜成像.png"
       inkscape:export-xdpi="141.08926"
       inkscape:export-ydpi="141.08926">
      <g
         id="g9128">
        <g
           style="fill:#000000;fill-opacity:1"
           id="g3052">
          <use
             xlink:href="#symbol8235"
             x="91.925003"
             y="81.962997"
             id="use8586"
             width="100%"
             height="100%" />
        </g>
      </g>
    </g>
    <g
       inkscape:label=""
       transform="matrix(0.31459499,0,0,0.31459499,72.342297,129.23737)"
       id="g20189"
       inkscape:export-filename="/home/xudonghan/Data/projects/Markdown/光学笔记/几何光学/image/成像/薄透镜成像.png"
       inkscape:export-xdpi="141.08926"
       inkscape:export-ydpi="141.08926">
      <g
         id="g1778">
        <g
           style="fill:#000000;fill-opacity:1"
           id="g3213">
          <use
             xlink:href="#symbol1974"
             x="91.925003"
             y="81.962997"
             id="use8624"
             width="100%"
             height="100%" />
        </g>
        <g
           style="fill:#000000;fill-opacity:1"
           id="g9295">
          <use
             xlink:href="#symbol9773"
             x="96.595001"
             y="77.848999"
             id="use3671"
             width="100%"
             height="100%" />
        </g>
        <g
           style="fill:#000000;fill-opacity:1"
           id="g4268">
          <use
             xlink:href="#symbol4478"
             x="96.595001"
             y="84.426003"
             id="use4241"
             width="100%"
             height="100%" />
        </g>
      </g>
    </g>
    <g
       inkscape:label=""
       transform="matrix(0.34054588,0,0,0.34054588,93.920041,110.06302)"
       id="g21523"
       inkscape:export-filename="/home/xudonghan/Data/projects/Markdown/光学笔记/几何光学/image/成像/薄透镜成像.png"
       inkscape:export-xdpi="141.08926"
       inkscape:export-ydpi="141.08926">
      <g
         id="g4996">
        <g
           style="fill:#000000;fill-opacity:1"
           id="g2448">
          <use
             xlink:href="#symbol7633"
             x="91.925003"
             y="81.962997"
             id="use2304"
             width="100%"
             height="100%" />
        </g>
        <g
           style="fill:#000000;fill-opacity:1"
           id="g9223">
          <use
             xlink:href="#symbol2950"
             x="96.595001"
             y="77.848999"
             id="use913"
             width="100%"
             height="100%" />
        </g>
        <g
           style="fill:#000000;fill-opacity:1"
           id="g6122">
          <use
             xlink:href="#symbol7159"
             x="96.595001"
             y="84.426003"
             id="use4535"
             width="100%"
             height="100%" />
        </g>
      </g>
    </g>
  </g>
</svg>
