<?xml version="1.0" encoding="UTF-8" standalone="no"?>
<!-- Created with Inkscape (http://www.inkscape.org/) -->

<svg
   width="210mm"
   height="297mm"
   viewBox="0 0 210 297"
   version="1.1"
   id="svg5"
   inkscape:version="1.1 (c68e22c387, 2021-05-23)"
   sodipodi:docname="杨氏双缝简单图像svg.svg"
   xmlns:inkscape="http://www.inkscape.org/namespaces/inkscape"
   xmlns:sodipodi="http://sodipodi.sourceforge.net/DTD/sodipodi-0.dtd"
   xmlns:xlink="http://www.w3.org/1999/xlink"
   xmlns="http://www.w3.org/2000/svg"
   xmlns:svg="http://www.w3.org/2000/svg">
  <sodipodi:namedview
     id="namedview7"
     pagecolor="#ffffff"
     bordercolor="#666666"
     borderopacity="1.0"
     inkscape:pageshadow="2"
     inkscape:pageopacity="0.0"
     inkscape:pagecheckerboard="0"
     inkscape:document-units="mm"
     showgrid="true"
     inkscape:zoom="4.7037037"
     inkscape:cx="260.53937"
     inkscape:cy="428.81102"
     inkscape:window-width="1920"
     inkscape:window-height="1030"
     inkscape:window-x="0"
     inkscape:window-y="24"
     inkscape:window-maximized="1"
     inkscape:current-layer="layer1">
    <inkscape:grid
       type="xygrid"
       id="grid824" />
  </sodipodi:namedview>
  <defs
     id="defs2">
    <marker
       style="overflow:visible;"
       id="Arrow1Send"
       refX="0.0"
       refY="0.0"
       orient="auto"
       inkscape:stockid="Arrow1Send"
       inkscape:isstock="true">
      <path
         transform="scale(0.2) rotate(180) translate(6,0)"
         style="fill-rule:evenodd;fill:context-stroke;stroke:context-stroke;stroke-width:1.0pt;"
         d="M 0.0,0.0 L 5.0,-5.0 L -12.5,0.0 L 5.0,5.0 L 0.0,0.0 z "
         id="path1978" />
    </marker>
    <marker
       style="overflow:visible"
       id="Arrow2Lstart"
       refX="0.0"
       refY="0.0"
       orient="auto"
       inkscape:stockid="Arrow2Lstart"
       inkscape:isstock="true">
      <path
         transform="scale(1.1) translate(1,0)"
         d="M 8.7185878,4.0337352 L -2.2072895,0.016013256 L 8.7185884,-4.0017078 C 6.9730900,-1.6296469 6.9831476,1.6157441 8.7185878,4.0337352 z "
         style="fill-rule:evenodd;fill:context-stroke;stroke-width:0.62500000;stroke-linejoin:round"
         id="path1981" />
    </marker>
    <marker
       style="overflow:visible;"
       id="Arrow1Mend"
       refX="0.0"
       refY="0.0"
       orient="auto"
       inkscape:stockid="Arrow1Mend"
       inkscape:isstock="true">
      <path
         transform="scale(0.4) rotate(180) translate(10,0)"
         style="fill-rule:evenodd;fill:context-stroke;stroke:context-stroke;stroke-width:1.0pt;"
         d="M 0.0,0.0 L 5.0,-5.0 L -12.5,0.0 L 5.0,5.0 L 0.0,0.0 z "
         id="path1972" />
    </marker>
    <marker
       style="overflow:visible;"
       id="marker4157"
       refX="0.0"
       refY="0.0"
       orient="auto"
       inkscape:stockid="Arrow2Lend"
       inkscape:isstock="true">
      <path
         transform="scale(1.1) rotate(180) translate(1,0)"
         d="M 8.7185878,4.0337352 L -2.2072895,0.016013256 L 8.7185884,-4.0017078 C 6.9730900,-1.6296469 6.9831476,1.6157441 8.7185878,4.0337352 z "
         style="fill-rule:evenodd;fill:context-stroke;stroke-width:0.62500000;stroke-linejoin:round;"
         id="path4155" />
    </marker>
    <marker
       style="overflow:visible;"
       id="marker4147"
       refX="0.0"
       refY="0.0"
       orient="auto"
       inkscape:stockid="Arrow2Lend"
       inkscape:isstock="true">
      <path
         transform="scale(1.1) rotate(180) translate(1,0)"
         d="M 8.7185878,4.0337352 L -2.2072895,0.016013256 L 8.7185884,-4.0017078 C 6.9730900,-1.6296469 6.9831476,1.6157441 8.7185878,4.0337352 z "
         style="fill-rule:evenodd;fill:context-stroke;stroke-width:0.62500000;stroke-linejoin:round;"
         id="path4145" />
    </marker>
    <marker
       style="overflow:visible"
       id="Arrow1Mstart"
       refX="0.0"
       refY="0.0"
       orient="auto"
       inkscape:stockid="Arrow1Mstart"
       inkscape:isstock="true">
      <path
         transform="scale(0.4) translate(10,0)"
         style="fill-rule:evenodd;fill:context-stroke;stroke:context-stroke;stroke-width:1.0pt"
         d="M 0.0,0.0 L 5.0,-5.0 L -12.5,0.0 L 5.0,5.0 L 0.0,0.0 z "
         id="path1969" />
    </marker>
    <marker
       style="overflow:visible;"
       id="Arrow2Lend"
       refX="0.0"
       refY="0.0"
       orient="auto"
       inkscape:stockid="Arrow2Lend"
       inkscape:isstock="true">
      <path
         transform="scale(1.1) rotate(180) translate(1,0)"
         d="M 8.7185878,4.0337352 L -2.2072895,0.016013256 L 8.7185884,-4.0017078 C 6.9730900,-1.6296469 6.9831476,1.6157441 8.7185878,4.0337352 z "
         style="fill-rule:evenodd;fill:context-stroke;stroke-width:0.62500000;stroke-linejoin:round;"
         id="path1984" />
    </marker>
    <marker
       style="overflow:visible"
       id="Arrow2Sstart"
       refX="0.0"
       refY="0.0"
       orient="auto"
       inkscape:stockid="Arrow2Sstart"
       inkscape:isstock="true">
      <path
         transform="scale(0.3) translate(-2.3,0)"
         d="M 8.7185878,4.0337352 L -2.2072895,0.016013256 L 8.7185884,-4.0017078 C 6.9730900,-1.6296469 6.9831476,1.6157441 8.7185878,4.0337352 z "
         style="fill-rule:evenodd;fill:context-stroke;stroke-width:0.62500000;stroke-linejoin:round"
         id="path1993" />
    </marker>
    <g
       id="g4603">
      <symbol
         overflow="visible"
         id="symbol564">
        <path
           style="stroke:none;"
           d=""
           id="path6494" />
      </symbol>
      <symbol
         overflow="visible"
         id="symbol8599">
        <path
           style="stroke:none;"
           d="M 6.4375 -6.921875 C 6.4375 -6.953125 6.40625 -7.03125 6.3125 -7.03125 C 6.265625 -7.03125 6.265625 -7.015625 6.140625 -6.875 L 5.65625 -6.3125 C 5.40625 -6.78125 4.890625 -7.03125 4.234375 -7.03125 C 2.96875 -7.03125 1.78125 -5.875 1.78125 -4.671875 C 1.78125 -3.875 2.296875 -3.40625 2.8125 -3.265625 L 3.875 -2.984375 C 4.25 -2.890625 4.796875 -2.734375 4.796875 -1.921875 C 4.796875 -1.03125 3.984375 -0.09375 3 -0.09375 C 2.359375 -0.09375 1.25 -0.3125 1.25 -1.546875 C 1.25 -1.78125 1.3125 -2.03125 1.3125 -2.078125 C 1.328125 -2.125 1.328125 -2.140625 1.328125 -2.15625 C 1.328125 -2.25 1.265625 -2.265625 1.21875 -2.265625 C 1.171875 -2.265625 1.140625 -2.25 1.109375 -2.21875 C 1.078125 -2.1875 0.515625 0.09375 0.515625 0.125 C 0.515625 0.171875 0.5625 0.21875 0.625 0.21875 C 0.671875 0.21875 0.6875 0.203125 0.8125 0.0625 L 1.296875 -0.5 C 1.71875 0.078125 2.40625 0.21875 2.984375 0.21875 C 4.34375 0.21875 5.515625 -1.109375 5.515625 -2.34375 C 5.515625 -3.03125 5.171875 -3.375 5.03125 -3.515625 C 4.796875 -3.734375 4.640625 -3.78125 3.765625 -4 C 3.53125 -4.0625 3.1875 -4.171875 3.09375 -4.1875 C 2.828125 -4.28125 2.484375 -4.5625 2.484375 -5.09375 C 2.484375 -5.90625 3.28125 -6.75 4.234375 -6.75 C 5.046875 -6.75 5.65625 -6.3125 5.65625 -5.203125 C 5.65625 -4.890625 5.625 -4.703125 5.625 -4.640625 C 5.625 -4.640625 5.625 -4.546875 5.734375 -4.546875 C 5.84375 -4.546875 5.859375 -4.578125 5.890625 -4.75 Z M 6.4375 -6.921875 "
           id="path3443" />
      </symbol>
      <symbol
         overflow="visible"
         id="symbol7949">
        <path
           style="stroke:none;"
           d=""
           id="path3326" />
      </symbol>
      <symbol
         overflow="visible"
         id="symbol2480">
        <path
           style="stroke:none;"
           d="M 2.015625 -3.296875 C 2.078125 -3.40625 2.078125 -3.46875 2.078125 -3.515625 C 2.078125 -3.734375 1.890625 -3.890625 1.671875 -3.890625 C 1.40625 -3.890625 1.328125 -3.671875 1.296875 -3.5625 L 0.375 -0.546875 C 0.359375 -0.53125 0.328125 -0.453125 0.328125 -0.4375 C 0.328125 -0.359375 0.546875 -0.28125 0.609375 -0.28125 C 0.65625 -0.28125 0.65625 -0.296875 0.703125 -0.40625 Z M 2.015625 -3.296875 "
           id="path9326" />
      </symbol>
      <symbol
         overflow="visible"
         id="symbol1143">
        <path
           style="stroke:none;"
           d=""
           id="path2406" />
      </symbol>
      <symbol
         overflow="visible"
         id="symbol14">
        <path
           style="stroke:none;"
           d="M 3.515625 -1.265625 L 3.28125 -1.265625 C 3.265625 -1.109375 3.1875 -0.703125 3.09375 -0.640625 C 3.046875 -0.59375 2.515625 -0.59375 2.40625 -0.59375 L 1.125 -0.59375 C 1.859375 -1.234375 2.109375 -1.4375 2.515625 -1.765625 C 3.03125 -2.171875 3.515625 -2.609375 3.515625 -3.265625 C 3.515625 -4.109375 2.78125 -4.625 1.890625 -4.625 C 1.03125 -4.625 0.4375 -4.015625 0.4375 -3.375 C 0.4375 -3.03125 0.734375 -2.984375 0.8125 -2.984375 C 0.96875 -2.984375 1.171875 -3.109375 1.171875 -3.359375 C 1.171875 -3.484375 1.125 -3.734375 0.765625 -3.734375 C 0.984375 -4.21875 1.453125 -4.375 1.78125 -4.375 C 2.484375 -4.375 2.84375 -3.828125 2.84375 -3.265625 C 2.84375 -2.65625 2.40625 -2.1875 2.1875 -1.9375 L 0.515625 -0.265625 C 0.4375 -0.203125 0.4375 -0.1875 0.4375 0 L 3.3125 0 Z M 3.515625 -1.265625 "
           id="path1046" />
      </symbol>
    </g>
    <g
       id="g3052">
      <symbol
         overflow="visible"
         id="symbol6846">
        <path
           style="stroke:none;"
           d=""
           id="path8938" />
      </symbol>
      <symbol
         overflow="visible"
         id="symbol9552">
        <path
           style="stroke:none;"
           d="M 6.4375 -6.921875 C 6.4375 -6.953125 6.40625 -7.03125 6.3125 -7.03125 C 6.265625 -7.03125 6.265625 -7.015625 6.140625 -6.875 L 5.65625 -6.3125 C 5.40625 -6.78125 4.890625 -7.03125 4.234375 -7.03125 C 2.96875 -7.03125 1.78125 -5.875 1.78125 -4.671875 C 1.78125 -3.875 2.296875 -3.40625 2.8125 -3.265625 L 3.875 -2.984375 C 4.25 -2.890625 4.796875 -2.734375 4.796875 -1.921875 C 4.796875 -1.03125 3.984375 -0.09375 3 -0.09375 C 2.359375 -0.09375 1.25 -0.3125 1.25 -1.546875 C 1.25 -1.78125 1.3125 -2.03125 1.3125 -2.078125 C 1.328125 -2.125 1.328125 -2.140625 1.328125 -2.15625 C 1.328125 -2.25 1.265625 -2.265625 1.21875 -2.265625 C 1.171875 -2.265625 1.140625 -2.25 1.109375 -2.21875 C 1.078125 -2.1875 0.515625 0.09375 0.515625 0.125 C 0.515625 0.171875 0.5625 0.21875 0.625 0.21875 C 0.671875 0.21875 0.6875 0.203125 0.8125 0.0625 L 1.296875 -0.5 C 1.71875 0.078125 2.40625 0.21875 2.984375 0.21875 C 4.34375 0.21875 5.515625 -1.109375 5.515625 -2.34375 C 5.515625 -3.03125 5.171875 -3.375 5.03125 -3.515625 C 4.796875 -3.734375 4.640625 -3.78125 3.765625 -4 C 3.53125 -4.0625 3.1875 -4.171875 3.09375 -4.1875 C 2.828125 -4.28125 2.484375 -4.5625 2.484375 -5.09375 C 2.484375 -5.90625 3.28125 -6.75 4.234375 -6.75 C 5.046875 -6.75 5.65625 -6.3125 5.65625 -5.203125 C 5.65625 -4.890625 5.625 -4.703125 5.625 -4.640625 C 5.625 -4.640625 5.625 -4.546875 5.734375 -4.546875 C 5.84375 -4.546875 5.859375 -4.578125 5.890625 -4.75 Z M 6.4375 -6.921875 "
           id="path8457" />
      </symbol>
      <symbol
         overflow="visible"
         id="symbol4447">
        <path
           style="stroke:none;"
           d=""
           id="path5137" />
      </symbol>
      <symbol
         overflow="visible"
         id="symbol7953">
        <path
           style="stroke:none;"
           d="M 2.015625 -3.296875 C 2.078125 -3.40625 2.078125 -3.46875 2.078125 -3.515625 C 2.078125 -3.734375 1.890625 -3.890625 1.671875 -3.890625 C 1.40625 -3.890625 1.328125 -3.671875 1.296875 -3.5625 L 0.375 -0.546875 C 0.359375 -0.53125 0.328125 -0.453125 0.328125 -0.4375 C 0.328125 -0.359375 0.546875 -0.28125 0.609375 -0.28125 C 0.65625 -0.28125 0.65625 -0.296875 0.703125 -0.40625 Z M 2.015625 -3.296875 "
           id="path7743" />
      </symbol>
      <symbol
         overflow="visible"
         id="symbol174">
        <path
           style="stroke:none;"
           d=""
           id="path2807" />
      </symbol>
      <symbol
         overflow="visible"
         id="symbol1849">
        <path
           style="stroke:none;"
           d="M 2.328125 -4.4375 C 2.328125 -4.625 2.328125 -4.625 2.125 -4.625 C 1.671875 -4.1875 1.046875 -4.1875 0.765625 -4.1875 L 0.765625 -3.9375 C 0.921875 -3.9375 1.390625 -3.9375 1.765625 -4.125 L 1.765625 -0.578125 C 1.765625 -0.34375 1.765625 -0.25 1.078125 -0.25 L 0.8125 -0.25 L 0.8125 0 C 0.9375 0 1.796875 -0.03125 2.046875 -0.03125 C 2.265625 -0.03125 3.140625 0 3.296875 0 L 3.296875 -0.25 L 3.03125 -0.25 C 2.328125 -0.25 2.328125 -0.34375 2.328125 -0.578125 Z M 2.328125 -4.4375 "
           id="path8193" />
      </symbol>
    </g>
    <g
       id="g8851">
      <symbol
         overflow="visible"
         id="symbol5348">
        <path
           style="stroke:none;"
           d=""
           id="path6871" />
      </symbol>
      <symbol
         overflow="visible"
         id="symbol9311">
        <path
           style="stroke:none;"
           d="M 4.53125 -4.984375 C 4.53125 -5.640625 4.359375 -7.03125 3.34375 -7.03125 C 1.953125 -7.03125 0.421875 -4.21875 0.421875 -1.9375 C 0.421875 -1 0.703125 0.109375 1.609375 0.109375 C 3.015625 0.109375 4.53125 -2.75 4.53125 -4.984375 Z M 1.46875 -3.625 C 1.640625 -4.25 1.84375 -5.046875 2.25 -5.765625 C 2.515625 -6.25 2.875 -6.8125 3.328125 -6.8125 C 3.8125 -6.8125 3.875 -6.171875 3.875 -5.609375 C 3.875 -5.109375 3.796875 -4.609375 3.5625 -3.625 Z M 3.46875 -3.296875 C 3.359375 -2.84375 3.15625 -2 2.765625 -1.28125 C 2.421875 -0.59375 2.046875 -0.109375 1.609375 -0.109375 C 1.28125 -0.109375 1.078125 -0.40625 1.078125 -1.328125 C 1.078125 -1.75 1.140625 -2.328125 1.390625 -3.296875 Z M 3.46875 -3.296875 "
           id="path7359" />
      </symbol>
    </g>
    <g
       id="g6821">
      <symbol
         overflow="visible"
         id="symbol629">
        <path
           style="stroke:none;"
           d=""
           id="path8500" />
      </symbol>
      <symbol
         overflow="visible"
         id="symbol6029">
        <path
           style="stroke:none;"
           d="M 0.875 -0.59375 C 0.84375 -0.4375 0.78125 -0.203125 0.78125 -0.15625 C 0.78125 0.015625 0.921875 0.109375 1.078125 0.109375 C 1.203125 0.109375 1.375 0.03125 1.453125 -0.171875 C 1.46875 -0.203125 1.796875 -1.5625 1.84375 -1.75 C 1.921875 -2.078125 2.109375 -2.765625 2.15625 -3.046875 C 2.203125 -3.171875 2.484375 -3.640625 2.71875 -3.859375 C 2.796875 -3.921875 3.09375 -4.1875 3.515625 -4.1875 C 3.78125 -4.1875 3.921875 -4.0625 3.9375 -4.0625 C 3.640625 -4.015625 3.421875 -3.78125 3.421875 -3.515625 C 3.421875 -3.359375 3.53125 -3.171875 3.796875 -3.171875 C 4.0625 -3.171875 4.34375 -3.40625 4.34375 -3.765625 C 4.34375 -4.109375 4.03125 -4.40625 3.515625 -4.40625 C 2.875 -4.40625 2.4375 -3.921875 2.25 -3.640625 C 2.15625 -4.09375 1.796875 -4.40625 1.328125 -4.40625 C 0.875 -4.40625 0.6875 -4.015625 0.59375 -3.84375 C 0.421875 -3.5 0.296875 -2.90625 0.296875 -2.875 C 0.296875 -2.765625 0.390625 -2.765625 0.40625 -2.765625 C 0.515625 -2.765625 0.515625 -2.78125 0.578125 -3 C 0.75 -3.703125 0.953125 -4.1875 1.3125 -4.1875 C 1.46875 -4.1875 1.609375 -4.109375 1.609375 -3.734375 C 1.609375 -3.515625 1.578125 -3.40625 1.453125 -2.890625 Z M 0.875 -0.59375 "
           id="path2533" />
      </symbol>
      <symbol
         overflow="visible"
         id="symbol204">
        <path
           style="stroke:none;"
           d=""
           id="path5652" />
      </symbol>
      <symbol
         overflow="visible"
         id="symbol31">
        <path
           style="stroke:none;"
           d="M 2.328125 -4.4375 C 2.328125 -4.625 2.328125 -4.625 2.125 -4.625 C 1.671875 -4.1875 1.046875 -4.1875 0.765625 -4.1875 L 0.765625 -3.9375 C 0.921875 -3.9375 1.390625 -3.9375 1.765625 -4.125 L 1.765625 -0.578125 C 1.765625 -0.34375 1.765625 -0.25 1.078125 -0.25 L 0.8125 -0.25 L 0.8125 0 C 0.9375 0 1.796875 -0.03125 2.046875 -0.03125 C 2.265625 -0.03125 3.140625 0 3.296875 0 L 3.296875 -0.25 L 3.03125 -0.25 C 2.328125 -0.25 2.328125 -0.34375 2.328125 -0.578125 Z M 2.328125 -4.4375 "
           id="path3641" />
      </symbol>
    </g>
    <g
       id="g5025">
      <symbol
         overflow="visible"
         id="symbol9752">
        <path
           style="stroke:none;"
           d=""
           id="path4093" />
      </symbol>
      <symbol
         overflow="visible"
         id="symbol8649">
        <path
           style="stroke:none;"
           d="M 0.875 -0.59375 C 0.84375 -0.4375 0.78125 -0.203125 0.78125 -0.15625 C 0.78125 0.015625 0.921875 0.109375 1.078125 0.109375 C 1.203125 0.109375 1.375 0.03125 1.453125 -0.171875 C 1.46875 -0.203125 1.796875 -1.5625 1.84375 -1.75 C 1.921875 -2.078125 2.109375 -2.765625 2.15625 -3.046875 C 2.203125 -3.171875 2.484375 -3.640625 2.71875 -3.859375 C 2.796875 -3.921875 3.09375 -4.1875 3.515625 -4.1875 C 3.78125 -4.1875 3.921875 -4.0625 3.9375 -4.0625 C 3.640625 -4.015625 3.421875 -3.78125 3.421875 -3.515625 C 3.421875 -3.359375 3.53125 -3.171875 3.796875 -3.171875 C 4.0625 -3.171875 4.34375 -3.40625 4.34375 -3.765625 C 4.34375 -4.109375 4.03125 -4.40625 3.515625 -4.40625 C 2.875 -4.40625 2.4375 -3.921875 2.25 -3.640625 C 2.15625 -4.09375 1.796875 -4.40625 1.328125 -4.40625 C 0.875 -4.40625 0.6875 -4.015625 0.59375 -3.84375 C 0.421875 -3.5 0.296875 -2.90625 0.296875 -2.875 C 0.296875 -2.765625 0.390625 -2.765625 0.40625 -2.765625 C 0.515625 -2.765625 0.515625 -2.78125 0.578125 -3 C 0.75 -3.703125 0.953125 -4.1875 1.3125 -4.1875 C 1.46875 -4.1875 1.609375 -4.109375 1.609375 -3.734375 C 1.609375 -3.515625 1.578125 -3.40625 1.453125 -2.890625 Z M 0.875 -0.59375 "
           id="path6879" />
      </symbol>
      <symbol
         overflow="visible"
         id="symbol8737">
        <path
           style="stroke:none;"
           d=""
           id="path6198" />
      </symbol>
      <symbol
         overflow="visible"
         id="symbol3049">
        <path
           style="stroke:none;"
           d="M 3.515625 -1.265625 L 3.28125 -1.265625 C 3.265625 -1.109375 3.1875 -0.703125 3.09375 -0.640625 C 3.046875 -0.59375 2.515625 -0.59375 2.40625 -0.59375 L 1.125 -0.59375 C 1.859375 -1.234375 2.109375 -1.4375 2.515625 -1.765625 C 3.03125 -2.171875 3.515625 -2.609375 3.515625 -3.265625 C 3.515625 -4.109375 2.78125 -4.625 1.890625 -4.625 C 1.03125 -4.625 0.4375 -4.015625 0.4375 -3.375 C 0.4375 -3.03125 0.734375 -2.984375 0.8125 -2.984375 C 0.96875 -2.984375 1.171875 -3.109375 1.171875 -3.359375 C 1.171875 -3.484375 1.125 -3.734375 0.765625 -3.734375 C 0.984375 -4.21875 1.453125 -4.375 1.78125 -4.375 C 2.484375 -4.375 2.84375 -3.828125 2.84375 -3.265625 C 2.84375 -2.65625 2.40625 -2.1875 2.1875 -1.9375 L 0.515625 -0.265625 C 0.4375 -0.203125 0.4375 -0.1875 0.4375 0 L 3.3125 0 Z M 3.515625 -1.265625 "
           id="path8148" />
      </symbol>
    </g>
    <g
       id="g5511">
      <symbol
         overflow="visible"
         id="symbol275">
        <path
           style="stroke:none;"
           d=""
           id="path992" />
      </symbol>
      <symbol
         overflow="visible"
         id="symbol7182">
        <path
           style="stroke:none;"
           d="M 1.578125 -0.78125 C 1.484375 -0.390625 1.46875 -0.3125 0.671875 -0.3125 C 0.515625 -0.3125 0.40625 -0.3125 0.40625 -0.125 C 0.40625 0 0.484375 0 0.671875 0 L 3.984375 0 C 6.046875 0 8.015625 -2.109375 8.015625 -4.28125 C 8.015625 -5.6875 7.171875 -6.8125 5.671875 -6.8125 L 2.328125 -6.8125 C 2.140625 -6.8125 2.03125 -6.8125 2.03125 -6.625 C 2.03125 -6.5 2.109375 -6.5 2.3125 -6.5 C 2.4375 -6.5 2.625 -6.484375 2.734375 -6.484375 C 2.90625 -6.453125 2.953125 -6.4375 2.953125 -6.3125 C 2.953125 -6.28125 2.953125 -6.25 2.921875 -6.125 Z M 3.734375 -6.125 C 3.828125 -6.46875 3.84375 -6.5 4.28125 -6.5 L 5.34375 -6.5 C 6.3125 -6.5 7.140625 -5.96875 7.140625 -4.65625 C 7.140625 -4.171875 6.953125 -2.53125 6.09375 -1.4375 C 5.8125 -1.0625 5.03125 -0.3125 3.796875 -0.3125 L 2.671875 -0.3125 C 2.53125 -0.3125 2.515625 -0.3125 2.453125 -0.3125 C 2.359375 -0.328125 2.328125 -0.34375 2.328125 -0.421875 C 2.328125 -0.453125 2.328125 -0.46875 2.375 -0.640625 Z M 3.734375 -6.125 "
           id="path4702" />
      </symbol>
    </g>
    <g
       id="g633">
      <symbol
         overflow="visible"
         id="symbol5313">
        <path
           style="stroke:none;"
           d=""
           id="path8633" />
      </symbol>
      <symbol
         overflow="visible"
         id="symbol1412">
        <path
           style="stroke:none;"
           d="M 5.140625 -6.8125 C 5.140625 -6.8125 5.140625 -6.921875 5.015625 -6.921875 C 4.859375 -6.921875 3.921875 -6.828125 3.75 -6.8125 C 3.671875 -6.796875 3.609375 -6.75 3.609375 -6.625 C 3.609375 -6.5 3.703125 -6.5 3.84375 -6.5 C 4.328125 -6.5 4.34375 -6.4375 4.34375 -6.328125 L 4.3125 -6.125 L 3.71875 -3.765625 C 3.53125 -4.140625 3.25 -4.40625 2.796875 -4.40625 C 1.640625 -4.40625 0.40625 -2.9375 0.40625 -1.484375 C 0.40625 -0.546875 0.953125 0.109375 1.71875 0.109375 C 1.921875 0.109375 2.421875 0.0625 3.015625 -0.640625 C 3.09375 -0.21875 3.453125 0.109375 3.921875 0.109375 C 4.28125 0.109375 4.5 -0.125 4.671875 -0.4375 C 4.828125 -0.796875 4.96875 -1.40625 4.96875 -1.421875 C 4.96875 -1.53125 4.875 -1.53125 4.84375 -1.53125 C 4.75 -1.53125 4.734375 -1.484375 4.703125 -1.34375 C 4.53125 -0.703125 4.359375 -0.109375 3.953125 -0.109375 C 3.671875 -0.109375 3.65625 -0.375 3.65625 -0.5625 C 3.65625 -0.8125 3.671875 -0.875 3.703125 -1.046875 Z M 3.078125 -1.1875 C 3.015625 -1 3.015625 -0.984375 2.875 -0.8125 C 2.4375 -0.265625 2.03125 -0.109375 1.75 -0.109375 C 1.25 -0.109375 1.109375 -0.65625 1.109375 -1.046875 C 1.109375 -1.546875 1.421875 -2.765625 1.65625 -3.234375 C 1.96875 -3.8125 2.40625 -4.1875 2.8125 -4.1875 C 3.453125 -4.1875 3.59375 -3.375 3.59375 -3.3125 C 3.59375 -3.25 3.578125 -3.1875 3.5625 -3.140625 Z M 3.078125 -1.1875 "
           id="path3314" />
      </symbol>
    </g>
    <g
       id="g3940">
      <symbol
         overflow="visible"
         id="symbol9328">
        <path
           style="stroke:none;"
           d=""
           id="path4052" />
      </symbol>
      <symbol
         overflow="visible"
         id="symbol3561">
        <path
           style="stroke:none;"
           d="M 3.328125 -3.015625 C 3.390625 -3.265625 3.625 -4.1875 4.3125 -4.1875 C 4.359375 -4.1875 4.609375 -4.1875 4.8125 -4.0625 C 4.53125 -4 4.34375 -3.765625 4.34375 -3.515625 C 4.34375 -3.359375 4.453125 -3.171875 4.71875 -3.171875 C 4.9375 -3.171875 5.25 -3.34375 5.25 -3.75 C 5.25 -4.265625 4.671875 -4.40625 4.328125 -4.40625 C 3.75 -4.40625 3.40625 -3.875 3.28125 -3.65625 C 3.03125 -4.3125 2.5 -4.40625 2.203125 -4.40625 C 1.171875 -4.40625 0.59375 -3.125 0.59375 -2.875 C 0.59375 -2.765625 0.703125 -2.765625 0.71875 -2.765625 C 0.796875 -2.765625 0.828125 -2.796875 0.84375 -2.875 C 1.1875 -3.9375 1.84375 -4.1875 2.1875 -4.1875 C 2.375 -4.1875 2.71875 -4.09375 2.71875 -3.515625 C 2.71875 -3.203125 2.546875 -2.546875 2.1875 -1.140625 C 2.03125 -0.53125 1.671875 -0.109375 1.234375 -0.109375 C 1.171875 -0.109375 0.953125 -0.109375 0.734375 -0.234375 C 0.984375 -0.296875 1.203125 -0.5 1.203125 -0.78125 C 1.203125 -1.046875 0.984375 -1.125 0.84375 -1.125 C 0.53125 -1.125 0.296875 -0.875 0.296875 -0.546875 C 0.296875 -0.09375 0.78125 0.109375 1.21875 0.109375 C 1.890625 0.109375 2.25 -0.59375 2.265625 -0.640625 C 2.390625 -0.28125 2.75 0.109375 3.34375 0.109375 C 4.375 0.109375 4.9375 -1.171875 4.9375 -1.421875 C 4.9375 -1.53125 4.859375 -1.53125 4.828125 -1.53125 C 4.734375 -1.53125 4.71875 -1.484375 4.6875 -1.421875 C 4.359375 -0.34375 3.6875 -0.109375 3.375 -0.109375 C 2.984375 -0.109375 2.828125 -0.421875 2.828125 -0.765625 C 2.828125 -0.984375 2.875 -1.203125 2.984375 -1.640625 Z M 3.328125 -3.015625 "
           id="path6602" />
      </symbol>
    </g>
    <g
       id="g7802">
      <symbol
         overflow="visible"
         id="symbol3012">
        <path
           style="stroke:none;"
           d=""
           id="path8792" />
      </symbol>
      <symbol
         overflow="visible"
         id="symbol2890">
        <path
           style="stroke:none;"
           d="M 4.40625 -6.953125 C 4.34375 -7.09375 4.3125 -7.140625 4.140625 -7.140625 C 3.984375 -7.140625 3.953125 -7.09375 3.890625 -6.953125 L 0.515625 -0.203125 C 0.46875 -0.109375 0.46875 -0.09375 0.46875 -0.078125 C 0.46875 0 0.53125 0 0.6875 0 L 7.609375 0 C 7.765625 0 7.828125 0 7.828125 -0.078125 C 7.828125 -0.09375 7.828125 -0.109375 7.78125 -0.203125 Z M 3.828125 -6.140625 L 6.515625 -0.75 L 1.140625 -0.75 Z M 3.828125 -6.140625 "
           id="path6588" />
      </symbol>
      <symbol
         overflow="visible"
         id="symbol1424">
        <path
           style="stroke:none;"
           d=""
           id="path1150" />
      </symbol>
      <symbol
         overflow="visible"
         id="symbol3148">
        <path
           style="stroke:none;"
           d="M 3.734375 -6.03125 C 3.8125 -6.390625 3.84375 -6.5 4.78125 -6.5 C 5.078125 -6.5 5.15625 -6.5 5.15625 -6.6875 C 5.15625 -6.8125 5.046875 -6.8125 5 -6.8125 C 4.671875 -6.8125 3.859375 -6.78125 3.53125 -6.78125 C 3.234375 -6.78125 2.5 -6.8125 2.203125 -6.8125 C 2.140625 -6.8125 2.015625 -6.8125 2.015625 -6.609375 C 2.015625 -6.5 2.109375 -6.5 2.296875 -6.5 C 2.3125 -6.5 2.5 -6.5 2.671875 -6.484375 C 2.84375 -6.453125 2.9375 -6.453125 2.9375 -6.3125 C 2.9375 -6.28125 2.9375 -6.25 2.90625 -6.125 L 1.5625 -0.78125 C 1.46875 -0.390625 1.453125 -0.3125 0.65625 -0.3125 C 0.484375 -0.3125 0.390625 -0.3125 0.390625 -0.109375 C 0.390625 0 0.484375 0 0.65625 0 L 5.28125 0 C 5.515625 0 5.515625 0 5.578125 -0.171875 L 6.375 -2.328125 C 6.40625 -2.4375 6.40625 -2.453125 6.40625 -2.46875 C 6.40625 -2.5 6.375 -2.578125 6.296875 -2.578125 C 6.203125 -2.578125 6.1875 -2.515625 6.125 -2.359375 C 5.78125 -1.453125 5.34375 -0.3125 3.625 -0.3125 L 2.6875 -0.3125 C 2.546875 -0.3125 2.515625 -0.3125 2.46875 -0.3125 C 2.359375 -0.328125 2.328125 -0.34375 2.328125 -0.421875 C 2.328125 -0.453125 2.328125 -0.46875 2.375 -0.640625 Z M 3.734375 -6.03125 "
           id="path4059" />
      </symbol>
    </g>
    <g
       id="g2502">
      <symbol
         overflow="visible"
         id="symbol7483">
        <path
           style="stroke:none;"
           d=""
           id="path3636" />
      </symbol>
      <symbol
         overflow="visible"
         id="symbol4403">
        <path
           style="stroke:none;"
           d="M 4.40625 -6.953125 C 4.34375 -7.09375 4.3125 -7.140625 4.140625 -7.140625 C 3.984375 -7.140625 3.953125 -7.09375 3.890625 -6.953125 L 0.515625 -0.203125 C 0.46875 -0.109375 0.46875 -0.09375 0.46875 -0.078125 C 0.46875 0 0.53125 0 0.6875 0 L 7.609375 0 C 7.765625 0 7.828125 0 7.828125 -0.078125 C 7.828125 -0.09375 7.828125 -0.109375 7.78125 -0.203125 Z M 3.828125 -6.140625 L 6.515625 -0.75 L 1.140625 -0.75 Z M 3.828125 -6.140625 "
           id="path9997" />
      </symbol>
      <symbol
         overflow="visible"
         id="symbol3410">
        <path
           style="stroke:none;"
           d=""
           id="path5316" />
      </symbol>
      <symbol
         overflow="visible"
         id="symbol4756">
        <path
           style="stroke:none;"
           d="M 3.734375 -6.03125 C 3.8125 -6.390625 3.84375 -6.5 4.78125 -6.5 C 5.078125 -6.5 5.15625 -6.5 5.15625 -6.6875 C 5.15625 -6.8125 5.046875 -6.8125 5 -6.8125 C 4.671875 -6.8125 3.859375 -6.78125 3.53125 -6.78125 C 3.234375 -6.78125 2.5 -6.8125 2.203125 -6.8125 C 2.140625 -6.8125 2.015625 -6.8125 2.015625 -6.609375 C 2.015625 -6.5 2.109375 -6.5 2.296875 -6.5 C 2.3125 -6.5 2.5 -6.5 2.671875 -6.484375 C 2.84375 -6.453125 2.9375 -6.453125 2.9375 -6.3125 C 2.9375 -6.28125 2.9375 -6.25 2.90625 -6.125 L 1.5625 -0.78125 C 1.46875 -0.390625 1.453125 -0.3125 0.65625 -0.3125 C 0.484375 -0.3125 0.390625 -0.3125 0.390625 -0.109375 C 0.390625 0 0.484375 0 0.65625 0 L 5.28125 0 C 5.515625 0 5.515625 0 5.578125 -0.171875 L 6.375 -2.328125 C 6.40625 -2.4375 6.40625 -2.453125 6.40625 -2.46875 C 6.40625 -2.5 6.375 -2.578125 6.296875 -2.578125 C 6.203125 -2.578125 6.1875 -2.515625 6.125 -2.359375 C 5.78125 -1.453125 5.34375 -0.3125 3.625 -0.3125 L 2.6875 -0.3125 C 2.546875 -0.3125 2.515625 -0.3125 2.46875 -0.3125 C 2.359375 -0.328125 2.328125 -0.34375 2.328125 -0.421875 C 2.328125 -0.453125 2.328125 -0.46875 2.375 -0.640625 Z M 3.734375 -6.03125 "
           id="path8691" />
      </symbol>
    </g>
  </defs>
  <g
     inkscape:label="图层 1"
     inkscape:groupmode="layer"
     id="layer1">
    <path
       style="fill:none;stroke:#000000;stroke-width:0.335201;stroke-linecap:butt;stroke-linejoin:miter;stroke-miterlimit:4;stroke-dasharray:none;stroke-opacity:1"
       d="m 41.010417,109.00833 v 4.23334"
       id="path880" />
    <path
       style="fill:none;stroke:#000000;stroke-width:0.259044;stroke-linecap:butt;stroke-linejoin:miter;stroke-miterlimit:4;stroke-dasharray:none;stroke-opacity:1"
       d="M 41.010417,96.572917 V 107.95"
       id="path962" />
    <path
       style="fill:none;stroke:#000000;stroke-width:0.239915px;stroke-linecap:butt;stroke-linejoin:miter;stroke-opacity:1"
       d="m 41.010417,114.56458 v 9.78959"
       id="path964" />
    <path
       style="fill:none;stroke:#000000;stroke-width:0.264583px;stroke-linecap:butt;stroke-linejoin:miter;stroke-opacity:1"
       d="M 93.927083,96.572917 V 124.35416"
       id="path1007" />
    <path
       style="fill:none;stroke:#000000;stroke-width:0.065;stroke-linecap:butt;stroke-linejoin:miter;stroke-opacity:1;stroke-miterlimit:4;stroke-dasharray:0.51999997,0.51999997;stroke-dashoffset:0"
       d="M 41.010416,111.125 H 93.927082"
       id="path1131" />
    <path
       style="fill:#ff0000;stroke:#fd0000;stroke-width:0.065;stroke-linecap:butt;stroke-linejoin:miter;stroke-opacity:1;stroke-miterlimit:4;stroke-dasharray:none;fill-opacity:1;marker-end:url(#Arrow2Lend)"
       d="m 41.010416,108.47917 52.916666,-6.61459"
       id="path1281" />
    <path
       style="fill:none;stroke:#ff0000;stroke-width:0.065;stroke-linecap:butt;stroke-linejoin:miter;stroke-opacity:1;stroke-miterlimit:4;stroke-dasharray:none;marker-end:url(#Arrow2Lend)"
       d="M 41.010416,113.77083 93.927082,101.86458"
       id="path1656" />
    <path
       style="fill:none;stroke:#000000;stroke-width:0.1;stroke-linecap:butt;stroke-linejoin:miter;stroke-opacity:1;stroke-miterlimit:4;stroke-dasharray:1.19999999,1.19999999;stroke-dashoffset:0"
       d="m 41.010416,108.47917 1.322917,5.29166"
       id="path1855" />
    <path
       style="fill:#000000;fill-opacity:0;fill-rule:evenodd;stroke:#040000;stroke-width:0.048;stroke-miterlimit:4;stroke-dasharray:none;stroke-dashoffset:0;stroke-opacity:1"
       id="path2319"
       sodipodi:type="arc"
       sodipodi:cx="41.083176"
       sodipodi:cy="108.36827"
       sodipodi:rx="1.9643269"
       sodipodi:ry="1.9643269"
       sodipodi:start="1.3782415"
       sodipodi:end="1.607844"
       sodipodi:arc-type="slice"
       d="m 41.459083,110.29629 a 1.9643269,1.9643269 0 0 1 -0.448664,0.035 l 0.07276,-1.96298 z" />
    <path
       style="fill:#000000;fill-opacity:0;fill-rule:evenodd;stroke:#040000;stroke-width:0.081;stroke-miterlimit:4;stroke-dasharray:none;stroke-dashoffset:0;stroke-opacity:1"
       id="path3579"
       sodipodi:type="arc"
       sodipodi:cx="53.181252"
       sodipodi:cy="111.125"
       sodipodi:rx="1.7137871"
       sodipodi:ry="1.5875"
       sodipodi:start="5.9638342"
       sodipodi:end="6.2764086"
       sodipodi:arc-type="arc"
       d="m 54.808388,110.6266 a 1.7137871,1.5875 0 0 1 0.08661,0.48764"
       sodipodi:open="true" />
    <path
       style="fill:none;stroke:#000000;stroke-width:0.065;stroke-linecap:butt;stroke-linejoin:miter;stroke-opacity:1;stroke-miterlimit:4;stroke-dasharray:none"
       d="m 93.927082,101.86458 h 3.96875"
       id="path4029" />
    <path
       style="fill:none;stroke:#000000;stroke-width:0.065;stroke-linecap:butt;stroke-linejoin:miter;stroke-opacity:1;stroke-miterlimit:4;stroke-dasharray:none"
       d="m 93.927082,111.125 h 3.96875"
       id="path4031" />
    <path
       style="fill:none;stroke:#000000;stroke-width:0.065;stroke-linecap:butt;stroke-linejoin:miter;stroke-opacity:1;stroke-miterlimit:4;stroke-dasharray:none;marker-start:url(#Arrow1Mstart);marker-end:url(#Arrow1Mend)"
       d="M 96.572915,101.86458 V 111.125"
       id="path4033" />
    <path
       style="fill:none;stroke:#000000;stroke-width:0.065;stroke-linecap:butt;stroke-linejoin:miter;stroke-opacity:1;stroke-miterlimit:4;stroke-dasharray:none;marker-start:url(#Arrow2Lstart);marker-end:url(#marker4157)"
       d="M 41.010416,120.38542 H 93.927082"
       id="path4236" />
    <g
       inkscape:label=""
       transform="matrix(0.22679047,0,0,0.22679047,17.184896,96.327255)"
       id="g4443">
      <g
         id="g9433">
        <g
           style="fill:#000000;fill-opacity:1"
           id="g5009">
          <use
             xlink:href="#symbol8599"
             x="91.925003"
             y="81.962997"
             id="use3783"
             width="100%"
             height="100%" />
        </g>
        <g
           style="fill:#000000;fill-opacity:1"
           id="g7801">
          <use
             xlink:href="#symbol2480"
             x="98.609001"
             y="77.848999"
             id="use4197"
             width="100%"
             height="100%" />
        </g>
        <g
           style="fill:#000000;fill-opacity:1"
           id="g4641">
          <use
             xlink:href="#symbol14"
             x="98.033997"
             y="84.426003"
             id="use823"
             width="100%"
             height="100%" />
        </g>
      </g>
    </g>
    <g
       inkscape:label=""
       transform="matrix(0.22332125,0,0,0.22332125,17.255404,90.752083)"
       id="g4667">
      <g
         id="g2207">
        <g
           style="fill:#000000;fill-opacity:1"
           id="g5827">
          <use
             xlink:href="#symbol9552"
             x="91.925003"
             y="81.962997"
             id="use5621"
             width="100%"
             height="100%" />
        </g>
        <g
           style="fill:#000000;fill-opacity:1"
           id="g4399">
          <use
             xlink:href="#symbol7953"
             x="98.609001"
             y="77.848999"
             id="use2247"
             width="100%"
             height="100%" />
        </g>
        <g
           style="fill:#000000;fill-opacity:1"
           id="g3728">
          <use
             xlink:href="#symbol1849"
             x="98.033997"
             y="84.426003"
             id="use4865"
             width="100%"
             height="100%" />
        </g>
      </g>
    </g>
    <g
       inkscape:label=""
       transform="matrix(0.21577829,0,0,0.21577829,36.288469,93.930798)"
       id="g5167">
      <g
         id="g5233">
        <g
           style="fill:#000000;fill-opacity:1"
           id="g8690">
          <use
             xlink:href="#symbol9311"
             x="91.925003"
             y="81.962997"
             id="use9870"
             width="100%"
             height="100%" />
        </g>
      </g>
    </g>
    <g
       inkscape:label=""
       transform="matrix(0.21577829,0,0,0.21577829,21.349846,93.763231)"
       id="g5289">
      <g
         id="g5287">
        <g
           style="fill:#000000;fill-opacity:1"
           id="g5285">
          <use
             xlink:href="#symbol9311"
             x="91.925003"
             y="81.962997"
             id="use5283"
             width="100%"
             height="100%" />
        </g>
      </g>
    </g>
    <g
       inkscape:label=""
       transform="matrix(0.24212172,0,0,0.24212172,39.720251,84.970298)"
       id="g5567">
      <g
         id="g1163">
        <g
           style="fill:#000000;fill-opacity:1"
           id="g8688">
          <use
             xlink:href="#symbol6029"
             x="91.925003"
             y="81.962997"
             id="use1606"
             width="100%"
             height="100%" />
        </g>
        <g
           style="fill:#000000;fill-opacity:1"
           id="g4448">
          <use
             xlink:href="#symbol31"
             x="96.419998"
             y="83.457001"
             id="use7816"
             width="100%"
             height="100%" />
        </g>
      </g>
    </g>
    <g
       inkscape:label=""
       transform="matrix(0.27208357,0,0,0.27208357,40.053873,86.333939)"
       id="g5926">
      <g
         id="g2252">
        <g
           style="fill:#000000;fill-opacity:1"
           id="g6180">
          <use
             xlink:href="#symbol8649"
             x="91.925003"
             y="81.962997"
             id="use6184"
             width="100%"
             height="100%" />
        </g>
        <g
           style="fill:#000000;fill-opacity:1"
           id="g6010">
          <use
             xlink:href="#symbol3049"
             x="96.419998"
             y="83.457001"
             id="use8225"
             width="100%"
             height="100%" />
        </g>
      </g>
    </g>
    <g
       inkscape:label=""
       transform="matrix(0.26711405,0,0,0.26711405,40.588838,97.978958)"
       id="g6324">
      <g
         id="g815">
        <g
           style="fill:#000000;fill-opacity:1"
           id="g8403">
          <use
             xlink:href="#symbol7182"
             x="91.925003"
             y="81.962997"
             id="use5046"
             width="100%"
             height="100%" />
        </g>
      </g>
    </g>
    <path
       style="fill:none;stroke:#000000;stroke-width:0.065;stroke-linecap:butt;stroke-linejoin:miter;stroke-opacity:1;stroke-miterlimit:4;stroke-dasharray:none"
       d="m 41.010416,108.47917 h -7.9375"
       id="path6516" />
    <path
       style="fill:none;stroke:#000000;stroke-width:0.065;stroke-linecap:butt;stroke-linejoin:miter;stroke-opacity:1;stroke-miterlimit:4;stroke-dasharray:none"
       d="m 41.010416,113.77083 h -7.9375"
       id="path6518" />
    <path
       style="fill:none;stroke:#000000;stroke-width:0.065;stroke-linecap:butt;stroke-linejoin:miter;stroke-opacity:1;stroke-miterlimit:4;stroke-dasharray:none;marker-start:url(#Arrow2Lstart);marker-end:url(#marker4157)"
       d="m 35.71875,108.47917 v 5.29166"
       id="path6948" />
    <g
       inkscape:label=""
       transform="matrix(0.3066095,0,0,0.3066095,5.522287,86.952529)"
       id="g7426">
      <g
         id="g9945">
        <g
           style="fill:#000000;fill-opacity:1"
           id="g2992">
          <use
             xlink:href="#symbol1412"
             x="91.925003"
             y="81.962997"
             id="use9411"
             width="100%"
             height="100%" />
        </g>
      </g>
    </g>
    <g
       inkscape:label=""
       transform="matrix(0.29063585,0,0,0.29063585,69.901148,83.411868)"
       id="g8020">
      <g
         id="g3799">
        <g
           style="fill:#000000;fill-opacity:1"
           id="g1458">
          <use
             xlink:href="#symbol3561"
             x="91.925003"
             y="81.962997"
             id="use7216"
             width="100%"
             height="100%" />
        </g>
      </g>
    </g>
    <g
       inkscape:label=""
       transform="translate(-47.447917,42.645833)"
       id="g8508"
       style="stroke:#000000;stroke-opacity:0;fill:#ff0000;fill-opacity:0">
      <g
         id="g5895"
         style="stroke:#000000;stroke-opacity:0;fill:#ff0000;fill-opacity:0">
        <g
           style="fill:#ff0000;fill-opacity:0;stroke:#000000;stroke-opacity:0"
           id="g353">
          <use
             xlink:href="#symbol2890"
             x="91.925003"
             y="81.962997"
             id="use5144"
             width="100%"
             height="100%"
             style="stroke:#000000;stroke-opacity:0;fill:#ff0000;fill-opacity:0" />
        </g>
        <g
           style="fill:#ff0000;fill-opacity:0;stroke:#000000;stroke-opacity:0"
           id="g7078">
          <use
             xlink:href="#symbol3148"
             x="100.227"
             y="81.962997"
             id="use8938"
             width="100%"
             height="100%"
             style="stroke:#000000;stroke-opacity:0;fill:#ff0000;fill-opacity:0" />
        </g>
      </g>
    </g>
    <g
       inkscape:label=""
       transform="matrix(0.09660278,0,0,0.09660278,34.560156,106.96412)"
       id="g10378">
      <g
         id="g9162">
        <g
           style="fill:#000000;fill-opacity:1"
           id="g8860">
          <use
             xlink:href="#symbol4403"
             x="91.925003"
             y="81.962997"
             id="use4202"
             width="100%"
             height="100%" />
        </g>
        <g
           style="fill:#000000;fill-opacity:1"
           id="g439">
          <use
             xlink:href="#symbol4756"
             x="100.227"
             y="81.962997"
             id="use1243"
             width="100%"
             height="100%" />
        </g>
      </g>
    </g>
    <path
       style="fill:#ff00ff;fill-opacity:0;stroke:#00ff00;stroke-width:0.295813px;stroke-linecap:butt;stroke-linejoin:miter;stroke-opacity:1"
       d="m 41.010416,113.77083 1.322917,-0.26458"
       id="path10449" />
    <path
       style="fill:none;stroke:#000000;stroke-width:0.1;stroke-linecap:butt;stroke-linejoin:miter;stroke-opacity:1;stroke-miterlimit:4;stroke-dasharray:none;marker-end:url(#Arrow1Send)"
       d="m 41.804166,113.77083 1.5875,0.52917"
       id="path11245" />
  </g>
</svg>
